<?xml version="1.0" encoding="UTF-8" standalone="no"?>
<!DOCTYPE svg PUBLIC "-//W3C//DTD SVG 1.1//EN" "http://www.w3.org/Graphics/SVG/1.1/DTD/svg11.dtd">
<svg width="100%" height="100%" viewBox="0 0 64 64" version="1.1" xmlns="http://www.w3.org/2000/svg" xmlns:xlink="http://www.w3.org/1999/xlink" xml:space="preserve" xmlns:serif="http://www.serif.com/" style="fill-rule:evenodd;clip-rule:evenodd;stroke-linejoin:round;stroke-miterlimit:2;">
    <g transform="matrix(1.42428,0,0,1.42428,0.690346,0.632651)">
        <path d="M38.507,1.998C41.142,2.118 42.117,1.87 42.009,4.5C41.995,4.837 41.935,5.172 41.922,5.51C41.81,8.419 42.481,11.772 39.692,14.685C38.221,16.221 27.491,26.955 24.684,29.699C24.5,29.879 22.564,31.771 21.48,29.511C20.071,26.574 22.639,23.011 18.495,22.962C17.825,22.954 17.155,22.967 16.486,22.947C16.221,22.939 13.896,22.87 13.503,21.499C13.149,20.261 13.409,20.229 14.301,19.317C18.232,15.296 30.708,2.893 30.774,2.845C31.495,2.315 31.536,2.278 38.507,1.998ZM4.034,19.501C4.093,16.851 3.876,15.84 6.521,16.036C9.946,16.29 8.31,18.235 9.283,20.619C9.679,21.588 12.326,24.105 12.617,24.382C14.756,26.415 16.419,26.049 16.605,26.093C18.172,26.467 17.773,26.973 18.048,28.564C18.344,30.272 18.525,30.262 22.69,34.308C24.969,36.523 25.95,35.92 26.609,36.079C28.455,36.526 27.985,38.375 27.929,38.595C27.511,40.233 26.133,40.053 23.486,39.96C21.767,39.9 21.41,40.146 16.335,34.666C13.303,31.391 7.057,25.514 5.777,24.224C3.43,21.858 4.076,20.701 4.034,19.501ZM1.966,38.5C2.29,36.247 1.728,35.969 3.308,34.316C3.8,33.802 3.796,33.821 4.308,33.308C7.029,30.586 7.513,29.341 9.599,31.393C13.401,35.132 14.642,35.693 12.699,37.683C9.547,40.912 8.875,41.947 6.491,42.029C6.244,42.038 4.236,42.107 3.396,41.919C2.188,41.649 2.01,40.609 1.983,40.448C1.873,39.808 2.075,39.14 1.966,38.5Z" style="fill-opacity:1;"/>
    </g>
</svg>
