<?xml version="1.0" encoding="UTF-8" standalone="no"?>
<!DOCTYPE svg PUBLIC "-//W3C//DTD SVG 1.1//EN" "http://www.w3.org/Graphics/SVG/1.1/DTD/svg11.dtd">
<svg width="100%" height="100%" viewBox="0 0 64 64" version="1.1" xmlns="http://www.w3.org/2000/svg" xmlns:xlink="http://www.w3.org/1999/xlink" xml:space="preserve" xmlns:serif="http://www.serif.com/" style="fill-rule:evenodd;clip-rule:evenodd;stroke-linejoin:round;stroke-miterlimit:2;">
    <g transform="matrix(1.131743,0,0,1.131743,-0.140283,2.76426)">
        <path d="M54.966,18.5C53.372,27.297 53.09,27.368 46.743,33.743C36.37,44.161 29.777,53.087 24.74,48.22C4.4,28.562 3.526,25.942 2.686,23.424C-2.28,8.54 15.588,-5.195 26.223,6.73C27.01,7.612 21.679,20.877 27.271,11.389C36.338,-3.997 53.73,0.598 54.966,18.5L49.027,26.263C49.145,25.964 50.383,22.818 49.649,22.302C48.623,21.58 48.002,22.651 47.931,22.774C41.687,33.542 26.09,43.454 28.321,45.679C29.914,47.267 48.465,26.967 49.027,26.263L54.966,18.5L36.768,9.772C37.508,9.194 38.07,8.409 38.81,7.831C47.007,1.42 32.533,6.249 32.889,11.49C33.129,15.026 36.575,10.051 36.768,9.772L54.966,18.5L11.772,9.768C12.011,9.602 14.671,7.76 14.709,7.623C16.313,1.845 4.031,11.359 7.352,13.698C7.738,13.971 8.22,14.31 11.772,9.768L54.966,18.5Z"/>
    </g>
</svg>
