<?xml version="1.0" encoding="UTF-8" standalone="no"?>
<!DOCTYPE svg PUBLIC "-//W3C//DTD SVG 1.1//EN" "http://www.w3.org/Graphics/SVG/1.1/DTD/svg11.dtd">
<svg width="100%" height="100%" viewBox="0 0 64 64" version="1.1" xmlns="http://www.w3.org/2000/svg" xmlns:xlink="http://www.w3.org/1999/xlink" xml:space="preserve" xmlns:serif="http://www.serif.com/" style="fill-rule:evenodd;clip-rule:evenodd;stroke-linejoin:round;stroke-miterlimit:2;">
    <g transform="matrix(1.135024,0,0,1.135024,1.837011,1.735466)">
        <path d="M18.52,24.532C16.605,26.808 16.486,27.032 13.5,26.966C7.963,26.843 6.215,27.598 4.271,25.74C1.415,23.011 2.034,22.562 2.034,18.5C2.034,6.019 1.895,5.866 2.784,4.739C4.673,2.342 6.177,2.066 6.543,1.998C7.097,1.896 12.95,2.024 13.507,2.037C16.049,2.092 16.041,2.564 18.739,5.261C19.299,5.822 25.707,12.23 25.754,12.257C26.21,12.522 27.79,12.522 28.246,12.257C28.293,12.23 33.781,6.742 34.261,6.261C37.527,2.996 38.057,1.922 40.504,1.968C47.958,2.105 47.978,2.103 48.575,2.35C49.209,2.613 51.348,4.732 51.65,5.425C52.045,6.333 51.966,6.363 51.966,18.5C51.966,22.562 52.585,23.011 49.729,25.74C47.785,27.598 46.037,26.843 40.5,26.966C37.514,27.032 37.395,26.808 35.48,24.532C35.074,24.524 34.817,23.953 34.41,23.944C34.146,23.939 33.951,24.445 33.93,24.5C33.762,24.933 34.02,24.957 33.855,25.383C36.624,30.473 36.703,30.415 39.298,35.603C44.806,46.62 44.983,46.533 45.313,47.551C45.398,47.814 45.333,48.132 45.197,48.373C44.433,49.72 44.041,49.047 42.486,49.038C39.286,49.02 40.327,50.968 40.331,52.468C40.332,52.593 40.336,53.816 39.524,53.802C38.489,53.783 39.058,53.113 35.702,46.397C28.473,31.928 28.465,31.908 28.219,31.726C27.86,31.46 26.14,31.46 25.781,31.726C25.449,31.971 16.883,48.993 15.825,51.756C15.626,52.274 15.599,52.87 15.294,53.333C15.121,53.596 14.79,53.796 14.476,53.802C13.664,53.816 13.668,52.593 13.669,52.468C13.67,52.135 13.738,51.805 13.763,51.472C13.958,48.905 13.073,48.888 10.513,49.06C8.413,49.202 8.311,48.264 9.283,46.397C13.16,38.946 16.417,31.557 19.093,27.317C19.187,27.168 19.171,27.173 20.145,25.383C20.039,25.108 20.177,24.776 20.07,24.5C20.003,24.326 19.937,24.206 19.876,24.124C19.74,23.941 19.63,23.943 19.59,23.944C19.51,23.946 19.443,23.956 19.386,23.973C19.276,24.005 19.204,24.063 19.145,24.129C19.06,24.224 19.003,24.337 18.896,24.419C18.813,24.483 18.699,24.529 18.52,24.532ZM21.821,23.537C23.128,26.353 22.854,26.629 25.208,28.787C27.298,30.701 28.891,28.779 29.792,27.794C31.082,26.382 31.407,25.202 32.252,23.382C32.778,22.249 32.88,21.787 32.197,20.411C31.856,19.725 31.319,18.811 30.542,17.473C30.406,17.274 30.32,17.116 30.241,16.968C30.017,16.546 29.855,16.204 28.79,15.214C28.548,14.989 26.784,13.348 24.677,15.683C23.653,16.818 23.637,17.211 23.458,17.473C21.504,20.836 21.066,21.522 21.44,22.647C21.514,22.868 21.618,23.105 21.748,23.382C21.773,23.435 21.797,23.487 21.821,23.537ZM43.044,17.142C43.098,17.449 43.195,17.684 43.335,17.735C43.467,17.783 44.66,18.218 45.031,17.3C45.133,17.049 45.073,16.751 45.175,16.5C45.073,16.249 45.133,15.951 45.031,15.7C44.66,14.782 43.467,15.217 43.335,15.265C43.017,15.381 42.92,16.446 43.044,17.142ZM31.984,15.843C32.922,17.354 33.277,17.532 33.441,17.615C34.4,18.097 34.413,18.058 35.504,18.045C40.158,17.989 40.277,17.847 40.537,17.537C40.803,17.22 40.788,15.742 40.537,15.463C40.049,14.92 38.663,14.949 38.495,14.953C33.731,15.055 33.633,14.696 32.397,15.41C32.224,15.51 32.156,15.743 31.984,15.843ZM22.016,15.843C21.844,15.743 21.776,15.51 21.603,15.41C20.367,14.696 20.269,15.055 15.505,14.953C15.337,14.949 13.951,14.92 13.463,15.463C13.212,15.742 13.197,17.22 13.463,17.537C13.723,17.847 13.842,17.989 18.496,18.045C19.587,18.058 19.6,18.097 20.559,17.615C20.723,17.532 21.078,17.354 22.016,15.843ZM10.41,17.813C10.539,17.781 10.633,17.746 10.665,17.735C11.123,17.568 11.123,15.432 10.665,15.265C10.533,15.217 9.34,14.782 8.969,15.7C8.867,15.951 8.927,16.249 8.825,16.5C8.927,16.751 8.867,17.049 8.969,17.3C9.25,17.996 10.004,17.914 10.41,17.813ZM29.471,21.232C29.864,22.658 29.137,23.715 28.283,25.38C27.542,26.825 26.952,27.281 26.067,25.932C25.095,24.451 24.656,23.434 24.47,22.739C24.28,22.032 24.352,21.658 24.389,21.469C24.447,21.168 24.698,20.925 24.756,20.623C24.789,20.563 24.821,20.503 24.853,20.445C26.35,17.684 26.24,17.614 26.477,17.461C26.771,17.273 27.229,17.273 27.523,17.461C27.671,17.556 27.772,17.621 28.138,18.325C28.372,18.773 28.714,19.482 29.244,20.623C29.343,20.835 29.417,21.037 29.471,21.232Z"/>
    </g>
</svg>
