<?xml version="1.0" encoding="UTF-8" standalone="no"?>
<!DOCTYPE svg PUBLIC "-//W3C//DTD SVG 1.1//EN" "http://www.w3.org/Graphics/SVG/1.1/DTD/svg11.dtd">
<svg width="100%" height="100%" viewBox="0 0 64 64" version="1.1" xmlns="http://www.w3.org/2000/svg" xmlns:xlink="http://www.w3.org/1999/xlink" xml:space="preserve" xmlns:serif="http://www.serif.com/" style="fill-rule:evenodd;clip-rule:evenodd;stroke-linejoin:round;stroke-miterlimit:2;">
    <g transform="matrix(1.499051,0,0,1.499051,5.018031,-0.979191)">
        <path d="M14.5,2.032C21.001,2.032 20.981,2.136 27.495,1.966C30.7,1.882 29.965,3.3 29.967,6.5C29.976,20.608 29.839,20.842 30.483,21.517C31.415,22.491 33.91,20.834 33.965,24.488C34.044,29.719 33.82,31.409 34.034,39.495C34.109,42.293 32.531,41.928 28.505,42.034C25.299,42.12 26.035,40.699 26.034,37.5C26.034,33.411 26.184,31.177 25.517,30.483C24.765,29.701 23.448,30.256 12.505,29.966C9.299,29.881 10.035,31.301 10.035,34.5C10.034,38.591 10.185,40.823 9.517,41.517C9.301,41.742 9.286,41.908 4.505,42.034C1.299,42.12 2.035,40.699 2.034,37.5C2.033,30.995 2.138,31.015 1.966,24.505C1.878,21.198 4.542,22.444 5.517,21.517C6.073,20.987 5.82,20.839 5.966,4.505C5.98,2.862 5.798,2.438 7.396,2.081C7.683,2.017 12.595,2.033 14.5,2.032L21.5,5.968C12.033,5.968 11.137,5.856 10.483,6.483C9.999,6.948 9.641,10.639 10.483,11.517C11.226,12.291 12.413,11.75 23.495,12.032C26.155,12.1 25.964,11.169 26.032,8.505C26.098,5.9 24.924,6.083 21.5,5.968L14.5,2.032L14.5,15.968C14.264,15.969 11.552,15.985 11.552,15.985C10.139,16.345 10.024,17.304 9.968,19.495C9.886,22.695 11.301,21.965 14.5,21.965C18.998,21.966 18.983,21.914 23.495,22.034C26.16,22.105 25.964,21.167 26.032,18.505C26.114,15.305 24.699,16.035 21.5,16.035C17.986,16.034 18.002,16.046 14.5,15.968L14.5,2.032Z"/>
    </g>
</svg>
