<?xml version="1.0" encoding="UTF-8" standalone="no"?>
<!DOCTYPE svg PUBLIC "-//W3C//DTD SVG 1.1//EN" "http://www.w3.org/Graphics/SVG/1.1/DTD/svg11.dtd">
<svg width="100%" height="100%" viewBox="0 0 64 64" version="1.1" xmlns="http://www.w3.org/2000/svg" xmlns:xlink="http://www.w3.org/1999/xlink" xml:space="preserve" xmlns:serif="http://www.serif.com/" style="fill-rule:evenodd;clip-rule:evenodd;stroke-linejoin:round;stroke-miterlimit:2;">
    <g transform="matrix(1.562001,0,0,1.562001,3.877819,-0.602633)">
        <path d="M29.503,32.012C23.373,31.046 23.949,29.209 23.489,29.458C22.482,30.002 23.052,36.767 22.422,37.425C13.439,46.793 13.249,31.464 13.238,30.546C13.19,26.718 3.458,37.993 1.983,27.483C1.195,21.87 10.3,21.625 5.278,18.921C-2.424,14.775 3.154,5.415 9.55,9.416C16.359,13.675 11.271,3.758 14.477,2.459C21.447,-0.366 22.738,1.973 22.851,9.466C22.91,13.352 33.602,2.859 34.02,13.514C34.254,19.477 31.145,17.71 29.664,19.646C29.038,20.464 40.898,29.712 29.503,32.012Z" style="fill-opacity:0.98;"/>
    </g>
</svg>
