<svg viewBox="0 0 2000 2000" xmlns="http://www.w3.org/2000/svg" fill-rule="evenodd" clip-rule="evenodd">
    <g class="brand-logo-light" transform="matrix(1.941206,0,0,1.941206,221.5807,4.85536)">
        <path d="M695.564,531.505C693.077,532.099 693.269,532.164 691.392,534.16C690.565,534.841 660.385,554.288 656.407,555.238C650.446,556.662 647.16,554.189 644.533,553.445L642.347,552.611C633.999,548.022 624.824,530.984 630.653,527.772C634.281,525.773 656.453,505.959 658.12,498.432C658.319,497.535 659.989,489.994 661.055,487.328C665.536,476.121 650.188,456.824 671.517,465.466C687.877,472.095 710.647,508.498 706.277,516.388C706.212,516.505 706.448,520.519 697.979,529.647C706.055,546.008 757.492,527.746 746.614,503.397C745.855,501.697 740.223,498.613 739.614,498.28C734.151,495.288 708.512,507.548 707.976,503.438C704.786,478.974 693.309,473.901 706.471,469.428C728.915,461.799 738.524,456.025 777.546,459.196C778.559,459.278 777.719,461.7 789.536,463.407C792.714,463.866 799.517,485.289 800.999,488.5L800.999,498.5C795.919,529.267 796.515,557.413 793.966,563.673C792.934,566.206 795.039,566.674 784.989,596.666C784.054,599.455 778.32,616.568 766.427,628.412C763.917,630.913 743.364,624.92 737.154,617.822C733.804,613.993 731.132,616.71 691.827,573.22C679.128,559.169 682.11,554.744 683.083,553.3C689.479,543.808 692.538,536.972 693.208,535.475C694.824,533.585 694.616,533.701 695.564,531.505ZM623.355,521.715L623.758,522.376C623.711,528.559 609.05,536.732 585.513,537.747C582.769,537.865 583.13,539.371 551.453,542.056C522.072,544.546 517.506,551.483 511.697,538.4C496.513,504.202 499.712,503.193 488.399,467.54C488.051,466.443 489.389,466.283 485.763,453.399C482.381,441.378 482.024,441.336 482.139,403.496C482.234,372.32 553.079,379.547 583.521,391.454C594.733,395.84 628.162,416.318 639.968,437.238C641.51,439.971 646.74,446.8 647.359,447.609C648.746,449.42 651.874,462.411 651.876,462.481C652.394,491.444 641.388,491.106 637.068,497.136C631.833,504.442 638.459,473.63 590.599,457.245C584.201,455.054 583.954,456.662 577.466,454.588C573.135,453.204 570.728,452.914 571.865,457.445C575.103,470.346 609.613,514.337 623.355,521.715ZM649.619,863.475C595.897,902.796 524.224,926.818 445.558,926.818C279.091,926.818 143.941,819.252 143.941,686.761C143.941,554.27 279.091,446.704 445.558,446.704C448.138,446.704 450.711,446.73 453.276,446.781C467.155,566.863 592.349,661.457 745.896,664.533C746.742,671.852 747.174,679.267 747.174,686.761C747.174,721.658 737.798,754.825 720.944,784.754C741.564,786.128 763.014,786.925 785.047,787.076C785.893,789.581 786.325,792.119 786.325,794.684C786.325,823.457 731.915,848.796 649.619,863.475Z"/>
    </g>
    <g class="brand-logo-dark" fill="currentColor" transform="matrix(1.941206,0,0,1.941206,221.5807,4.85536)">
        <path d="M411.24,910.603C412.704,915.661 415.165,930.298 413.053,942.434C410.192,958.873 398.767,959.146 408.165,972.778C415.309,983.142 432.639,987.278 442.316,982.083C448.103,978.976 449.986,979.475 449.245,982.405C438.604,1024.488 359.453,1023.251 328.582,985.437C326.938,983.424 327.749,982.97 325.79,981.168C300.097,957.527 273.488,935.385 214.463,995.463C202.298,1007.846 204.876,1012.35 172.526,1022.57C144.887,1031.302 116.908,987.979 113.841,983.231C110.667,978.315 91.177,939.171 98.129,907.441C99.865,899.516 86.261,895.864 63.34,876.683C12.924,834.493 -6.259,766.118 34.047,695.269C68.131,635.357 78.87,644.528 87.264,634.307C87.46,634.068 89.755,611.534 89.956,609.553C93.497,574.774 87.059,552.128 160.536,480.538C166.706,474.527 210.102,446.045 222.477,442.44C242.986,436.465 253.317,428.582 273.626,422.752L274.855,421.883C298.597,415.967 298.217,412.945 331.503,413.163C348.332,413.273 358.361,426.468 373.63,417.772C375.663,416.614 377.314,418.192 389.472,413.428C393.145,411.989 425.136,407.157 425.494,407.152C469.268,406.436 471.3,404.723 471.83,408.394C478.346,453.556 479.598,466.363 495.576,517.47C496.244,519.607 502.859,540.769 505.164,543.764C505.299,543.94 513.436,551.007 513.667,551.014C516.067,551.09 515.888,549.58 558.47,545.042C588.687,541.822 608.974,534.468 613.422,537.607C629.299,548.814 639.122,553.317 641.502,554.408C643.478,555.527 643.353,555.516 645.55,556.414C665.054,562.608 666.606,560.787 679.838,576.194C681.283,577.876 682.084,576.882 701.451,593.551C730.248,618.336 740.437,630.495 767.568,632.23C773.655,632.62 777.407,683.969 786.589,706.466C788.073,710.102 785.948,710.541 788.562,715.471C789.117,716.517 788.939,716.562 793.908,761.472C800.749,823.297 771.401,885.477 756.157,918.228C755.321,920.024 754.081,919.118 743.226,939.35C729.905,964.177 703.009,979.503 698.728,981.942C695.172,983.968 680.909,994.144 669.565,995.942C663.688,996.873 664.568,999.488 658.544,999.799C641.588,1000.676 633.518,1008.496 596.478,993.546C579.434,986.666 565.663,967.624 572.585,971.306C598.281,984.971 627.044,963.853 624.092,929.497C622.11,906.432 619.035,879.83 642.461,845.481C649.308,835.442 645.822,830.382 654.535,831.214C720.094,837.476 753.025,817.483 773.092,811.052C777.653,808.881 772.609,809.484 772.487,809.53C761.327,808.753 753.163,810.208 735.599,805.238C734.718,804.989 734.699,805.177 724.469,802.577C723.269,802.272 710.315,798.98 710.193,796.586C709.368,780.381 704.679,764.827 697.109,750.812C681.216,721.388 652.622,698.741 620.41,691.065C619.145,690.763 617.875,690.485 616.599,690.23C588.234,684.565 582.06,688.764 574.204,683.96C568.45,680.44 541.383,655.667 532.84,643.224C530.721,640.138 520.561,625.338 511.383,606.134C509.436,602.061 507.534,597.79 505.762,593.391C500.437,580.171 502.545,564.619 498.719,576.534L499.364,579.457C498.607,587.65 497.954,591.004 497.29,595.156C496.81,598.157 496.324,601.574 495.79,607.536C494.849,618.039 493.916,617.828 493.826,628.5C493.717,641.466 489.579,651.473 500.243,694.599C500.462,695.483 503.601,708.179 499.313,705.947C494.648,703.52 475.716,693.668 447.538,665.462C446.553,664.476 409.393,624.481 395.32,556.537C394.705,553.569 394.562,558.516 364.763,578.925C319.174,610.151 281.285,611.562 270.663,619.696C235.675,646.49 234.137,668.255 222.223,674.239C221.962,674.37 221.695,674.494 221.424,674.61C217.605,676.239 212.71,676.348 205.456,674.621C203.322,674.112 189.564,670.837 178.454,669.795C176.105,669.575 147.555,658.09 150.106,662.609C158.179,676.911 169.787,689.456 173.948,695.192C181.16,705.133 260.906,761.793 260.894,771.473C260.859,800.151 236.738,846.54 299.497,847.069C312.217,847.177 324.027,827.239 307.808,818.042C303.839,815.792 337.854,802.13 355.93,838.281C361.684,849.789 362.759,850.119 359.567,862.526C358.503,866.663 357.037,867.754 359.386,867.961C368.78,868.788 401.225,876.009 411.24,910.603ZM416.525,864.01C395.947,861.663 410.416,831.178 412.223,815.437C412.909,809.455 438.852,823.763 442.657,827.312C444.867,829.373 468.68,843.628 468.788,844.411C469.399,848.815 442.023,869.383 416.525,864.01ZM218.537,689.968C221.119,690.669 221.98,689.744 224.316,686.481C233.033,674.311 233.282,674.606 242.905,663.236C255.039,648.899 275.321,638.758 275.857,638.399C279.274,636.113 290.602,628.534 325.064,623.555C364.065,620.814 380.093,630.674 384.173,633.184C410.608,649.445 421.832,672.197 423.91,676.41C425.238,679.101 433.968,696.796 436.962,711.588C441.738,735.182 445.062,740.217 441.608,760.723C440.628,766.535 435.872,761.231 433.938,761.021C428.69,760.453 429.071,759.173 428.63,759.246C422.72,760.222 409.383,748.394 311.117,753.968C297.768,754.725 264.897,743.052 262.71,741.963C261.816,741.517 254.774,738.009 251.404,736.666C195.725,714.477 154.167,665.349 161.701,668.393C183.074,677.028 183.143,676.816 184.988,677.597C200.337,684.089 200.723,682.849 216.104,689.097C216.416,689.224 216.71,689.34 216.987,689.446C217.251,689.194 217.824,688.942 218.47,688.581C218.47,689.13 218.522,689.607 218.537,689.968ZM376.456,693.997C373.669,698.2 369.989,703.115 364.998,715.583C364.012,718.047 357.773,726.708 354.649,735.386C354.22,736.578 347.581,743.508 350.915,743.718C397.181,746.646 412.835,751.813 417.985,753.513C418.14,753.565 417.985,753.513 420.021,753.711C430.743,756.819 441.388,762.091 438.289,743.457C434.62,721.4 433.01,712.679 410.916,686.158C389.819,660.835 339.956,655.229 359.544,665.169C380.301,675.702 384.482,677.014 379.617,688.362C378.709,690.48 377.666,692.171 376.456,693.997ZM729.484,811.488C737.173,812.7 756.664,811.72 746.702,815.033C714.396,825.779 709.364,824.658 661.751,824.8C656.474,824.816 645.261,821.833 643.854,821.458C643.36,821.327 622.971,813.528 579.453,801.082C576.665,800.284 576.632,800.639 544.257,792.448C531.381,789.19 497.794,776.888 496.78,770.692C496.41,768.44 508.25,737.669 535.737,717.059C588.15,677.76 662.395,696.954 692.194,756.763C702.077,776.598 703.629,788.967 703.846,796.529C704.063,804.116 702.936,806.864 707.531,807.461C715.719,808.524 715.189,810.349 723.47,811.444C725.458,811.707 727.496,811.225 729.484,811.488ZM664.056,773.313C665.722,763.51 663.284,754.904 657.2,740.722C653.945,733.134 623.922,718.703 605.298,719.215C595.707,719.478 614.569,726.055 617.766,728.348C626.452,734.575 616.236,736.026 615.159,738.728C613.28,743.441 609.361,750.074 609.167,750.685C600.546,777.777 588.475,793.88 589.567,795.806C589.936,796.457 613.893,800.627 620.614,801.59C630.711,803.036 651.439,812.921 660.284,793.831C663.048,787.866 663.941,774.978 664.056,773.313ZM219.621,683.139C218.6,683.497 218.841,681.5 219.5,681.5C219.581,681.5 219.546,681.5 219.889,681.87C220.024,682.015 220.218,682.218 220.5,682.5C220.138,682.862 219.848,683.059 219.621,683.139ZM647.999,421.5C647.182,409.107 645.773,409.526 642.729,397.409C642.268,395.572 638.013,378.634 636.069,374.689C627.349,356.998 629.807,356.181 629.004,354.686C628.281,353.341 624.265,345.867 620.968,337.383C616.711,326.428 612.128,321.43 611.406,319.548C606.031,305.538 599.335,300.036 593.038,287.728C581.175,264.541 517.663,196.622 513.599,194.382C497.05,185.259 492.396,176.696 473.773,161.184C470.069,158.098 446.024,138.069 434.295,115.658C429.955,107.365 427.607,108.758 408.061,70.718C402.277,59.462 403.735,58.951 398.063,47.696C392.099,35.861 410.216,13.168 422.46,8.422C439.897,1.664 439.859,0.697 458.531,2.124C465.284,2.64 508.977,5.979 540.391,23.722C541.014,24.074 544.716,26.165 548.389,27.726C557.607,31.644 556.521,33.263 565.408,37.617C566.207,38.008 574.256,41.952 575.243,42.801C576.056,43.5 581.042,47.788 585.792,51.074C610.051,67.862 618.96,79.953 632.497,93.503C660.582,121.615 698.869,193.932 706.646,223.442C707.093,225.135 712.159,244.356 712.259,244.597C721.645,267.185 728.681,345.786 722.892,379.536C718.49,405.199 720.742,405.6 719.631,407.565C717.425,411.467 713.643,432.526 713.632,432.553C708.432,445.091 710.178,445.536 709.612,446.555C702.934,458.602 703.531,465.643 699.597,469.605C697.442,471.774 665.59,451.395 656.447,448.911C644.914,445.777 647.979,436.011 647.999,421.5ZM255.502,326.001C235.704,322.842 212.877,324.898 210.472,324.862C201.049,324.723 201.306,325.872 200.506,325.838C163.099,324.274 133.324,341.111 120.555,343.636C99.7,347.759 87.862,355.545 55.502,354.258C34.565,353.425 23.752,345.028 21.606,344.24C10.181,340.042 -0.618,325.859 1.197,309.461C3.546,288.24 17.642,276.861 18.04,276.208C26.403,262.459 29.039,265.195 42.535,253.537C48.605,248.293 49.307,249.425 55.345,244.304C64.05,236.92 65.601,239.492 74.342,232.298C81.534,226.38 156.739,184.77 234.521,187.123C255.721,187.764 255.498,188.639 276.538,190.182C290.892,191.235 325.129,202.271 342.522,210.456C392.368,233.912 405.704,255.43 408.788,257.022C412.868,259.127 419.152,267.792 422.881,272.21C425.09,274.826 441.067,293.751 448.489,306.509C473.683,349.814 477.624,391.011 480.6,395.439C486.568,404.316 468.483,396.869 467.512,396.469C444.128,386.84 431.224,389.472 426.465,387.585C417.182,383.904 421.768,376.94 380.598,356.307C331.767,331.835 255.846,325.993 255.502,326.001Z"/>
    </g>
</svg>
