<?xml version="1.0" encoding="UTF-8" standalone="no"?>
<!DOCTYPE svg PUBLIC "-//W3C//DTD SVG 1.1//EN" "http://www.w3.org/Graphics/SVG/1.1/DTD/svg11.dtd">
<svg width="100%" height="100%" viewBox="0 0 2000 2000" version="1.1" xmlns="http://www.w3.org/2000/svg" xmlns:xlink="http://www.w3.org/1999/xlink" xml:space="preserve" xmlns:serif="http://www.serif.com/" style="fill-rule:evenodd;clip-rule:evenodd;stroke-linejoin:round;stroke-miterlimit:2;">
    <path d="M1482.624,1681.038C1378.339,1757.369 1239.208,1804 1086.5,1804C763.354,1804 501,1595.192 501,1338C501,1080.808 763.354,872 1086.5,872C1091.509,872 1096.503,872.05 1101.482,872.15C1128.424,1105.253 1371.453,1288.879 1669.518,1294.85C1671.161,1309.059 1672,1323.452 1672,1338C1672,1405.742 1653.799,1470.127 1621.081,1528.225C1661.11,1530.892 1702.747,1532.438 1745.518,1532.731C1747.161,1537.594 1748,1542.521 1748,1547.5C1748,1603.355 1642.379,1652.543 1482.624,1681.038Z" style="fill:rgb(247,247,247);"/>
    <g transform="matrix(1.289102,0,0,1.289102,-288.903692,-432.150218)">
        <g id="Background" transform="matrix(1.505859,0,0,1.505859,396,339)">
            <path d="M274.855,421.883C298.597,415.967 298.217,412.945 331.503,413.163C348.332,413.273 358.361,426.468 373.63,417.772C375.663,416.614 377.314,418.192 389.472,413.428C393.145,411.989 425.136,407.157 425.494,407.152C469.268,406.436 471.3,404.723 471.83,408.394C478.346,453.556 479.598,466.363 495.576,517.47C496.244,519.607 502.859,540.769 505.164,543.764C505.299,543.94 507.74,554.537 510.954,548.832C512.264,546.505 513.436,551.007 513.667,551.014C516.067,551.09 515.888,549.58 558.47,545.042C588.687,541.822 608.974,534.468 613.422,537.607C629.299,548.814 639.122,553.317 641.502,554.408C643.478,555.527 643.353,555.516 645.55,556.414C665.054,562.608 666.606,560.787 679.838,576.194C681.283,577.876 682.084,576.882 701.451,593.551C730.248,618.336 740.437,630.495 767.568,632.23C773.655,632.62 777.407,683.969 786.589,706.466C788.073,710.102 785.948,710.541 788.562,715.471C789.117,716.517 788.939,716.562 793.908,761.472C800.749,823.297 771.401,885.477 756.157,918.228C755.321,920.024 754.081,919.118 743.226,939.35C729.905,964.177 703.009,979.503 698.728,981.942C695.172,983.968 680.909,994.144 669.565,995.942C663.688,996.873 664.568,999.488 658.544,999.799C641.588,1000.676 633.518,1008.496 596.478,993.546C579.434,986.666 565.663,967.624 572.585,971.306C598.281,984.971 623.332,963.971 624.092,929.497C624.569,907.848 620.008,896.774 625.303,882.509C625.393,882.368 629.426,873.371 624.514,880.569L623.751,880.942C614.543,889.734 567.784,911.569 556.558,912.965C553.363,913.362 553.83,915.225 517.558,922.906C503.471,925.889 502.028,931.039 451.493,929.843C439.176,929.552 421.183,924.91 418.598,924.243C406.76,921.19 415.165,930.298 413.053,942.434C410.192,958.873 398.767,959.146 408.165,972.778C415.309,983.142 432.639,987.278 442.316,982.083C448.103,978.976 449.986,979.475 449.245,982.405C438.604,1024.488 359.453,1023.251 328.582,985.437C326.938,983.424 327.749,982.97 325.79,981.168C300.097,957.527 273.488,935.385 214.463,995.463C202.298,1007.846 204.876,1012.35 172.526,1022.57C144.887,1031.302 116.908,987.979 113.841,983.231C110.667,978.315 91.177,939.171 98.129,907.441C99.865,899.516 86.261,895.864 63.34,876.683C12.924,834.493 -6.259,766.118 34.047,695.269C68.131,635.357 78.87,644.528 87.264,634.307C87.46,634.068 89.755,611.534 89.956,609.553C93.497,574.774 87.059,552.128 160.536,480.538C166.706,474.527 210.102,446.045 222.477,442.44C242.986,436.465 253.317,428.582 273.626,422.752C273.626,422.752 274.756,421.953 274.855,421.883L498.719,576.534C498.934,577.508 499.149,578.482 499.364,579.457C498.06,593.57 497.064,593.324 495.79,607.536C494.849,618.039 493.916,617.828 493.826,628.5C493.717,641.466 489.579,651.473 500.243,694.599C500.462,695.483 503.601,708.179 499.313,705.947C494.648,703.52 475.716,693.668 447.538,665.462C446.553,664.476 409.393,624.481 395.32,556.537C394.705,553.569 394.562,558.516 364.763,578.925C319.174,610.151 281.285,611.562 270.663,619.696C224.125,655.335 236.767,682.075 205.456,674.621C203.322,674.112 189.564,670.837 178.454,669.795C176.105,669.575 147.555,658.09 150.106,662.609C158.179,676.911 169.787,689.456 173.948,695.192C181.16,705.133 260.906,761.793 260.894,771.473C260.859,800.151 236.738,846.54 299.497,847.069C312.217,847.177 324.027,827.239 307.808,818.042C303.839,815.792 337.854,802.13 355.93,838.281C361.684,849.789 362.759,850.119 359.567,862.526C358.503,866.663 357.037,867.754 359.386,867.961C368.78,868.788 401.225,876.009 411.24,910.603C412.704,915.661 414.254,914.198 430.415,918.742C443.615,922.454 504.567,927.823 556.333,907.024C581.035,897.099 623.12,882.182 642.461,845.481C648.126,834.731 645.822,830.382 654.535,831.214C720.094,837.476 753.025,817.483 773.092,811.052C773.104,810.11 773.118,810.229 772.487,809.53C761.327,808.753 753.163,810.208 735.599,805.238C734.718,804.989 734.699,805.177 724.469,802.577C723.269,802.272 710.315,798.98 710.193,796.586C707.567,745.024 665.83,700.063 616.599,690.23C588.234,684.565 582.06,688.764 574.204,683.96C568.45,680.44 541.383,655.667 532.84,643.224C530.272,639.483 515.889,618.533 505.762,593.391C500.437,580.171 502.545,564.619 498.719,576.534L274.855,421.883L772.487,809.53C773.118,810.229 773.104,810.11 773.092,811.052C777.653,808.881 772.609,809.484 772.487,809.53L274.855,421.883L218.47,688.581C217.118,689.336 216.089,689.613 217.53,690.419C218.927,691.2 218.47,690.203 218.47,688.581L274.855,421.883L220.5,682.5C219.5,681.5 219.613,681.5 219.5,681.5C218.694,681.5 218.514,684.486 220.5,682.5L274.855,421.883Z" style="fill-opacity:1;"/>
            <path d="M647.999,421.5C647.182,409.107 645.773,409.526 642.729,397.409C642.268,395.572 638.013,378.634 636.069,374.689C627.349,356.998 629.807,356.181 629.004,354.686C628.281,353.341 624.265,345.867 620.968,337.383C616.711,326.428 612.128,321.43 611.406,319.548C606.031,305.538 599.335,300.036 593.038,287.728C581.175,264.541 517.663,196.622 513.599,194.382C497.05,185.259 492.396,176.696 473.773,161.184C470.069,158.098 446.024,138.069 434.295,115.658C429.955,107.365 427.607,108.758 408.061,70.718C402.277,59.462 403.735,58.951 398.063,47.696C392.099,35.861 410.216,13.168 422.46,8.422C439.897,1.664 439.859,0.697 458.531,2.124C465.284,2.64 508.977,5.979 540.391,23.722C541.014,24.074 544.716,26.165 548.389,27.726C557.607,31.644 556.521,33.263 565.408,37.617C566.207,38.008 574.256,41.952 575.243,42.801C576.056,43.5 581.042,47.788 585.792,51.074C610.051,67.862 618.96,79.953 632.497,93.503C660.582,121.615 698.869,193.932 706.646,223.442C707.093,225.135 712.159,244.356 712.259,244.597C721.645,267.185 728.681,345.786 722.892,379.536C718.49,405.199 720.742,405.6 719.631,407.565C717.425,411.467 713.643,432.526 713.632,432.553C708.432,445.091 710.178,445.536 709.612,446.555C702.934,458.602 703.531,465.643 699.597,469.605C697.442,471.774 665.59,451.395 656.447,448.911C644.914,445.777 647.979,436.011 647.999,421.5Z" style="fill-opacity:0.99;"/>
            <path d="M255.502,326.001C235.704,322.842 212.877,324.898 210.472,324.862C201.049,324.723 201.306,325.872 200.506,325.838C163.099,324.274 133.324,341.111 120.555,343.636C99.7,347.759 87.862,355.545 55.502,354.258C34.565,353.425 23.752,345.028 21.606,344.24C10.181,340.042 -0.618,325.859 1.197,309.461C3.546,288.24 17.642,276.861 18.04,276.208C26.403,262.459 29.039,265.195 42.535,253.537C48.605,248.293 49.307,249.425 55.345,244.304C64.05,236.92 65.601,239.492 74.342,232.298C81.534,226.38 156.739,184.77 234.521,187.123C255.721,187.764 255.498,188.639 276.538,190.182C290.892,191.235 325.129,202.271 342.522,210.456C392.368,233.912 405.704,255.43 408.788,257.022C412.868,259.127 419.152,267.792 422.881,272.21C425.09,274.826 441.067,293.751 448.489,306.509C473.683,349.814 477.624,391.011 480.6,395.439C486.568,404.316 468.483,396.869 467.512,396.469C444.128,386.84 431.224,389.472 426.465,387.585C417.182,383.904 421.768,376.94 380.598,356.307C331.767,331.835 255.846,325.993 255.502,326.001Z" style="fill-opacity:0.99;"/>
            <path d="M623.355,521.715L623.758,522.376C623.711,528.559 609.05,536.732 585.513,537.747C582.769,537.865 583.13,539.371 551.453,542.056C522.072,544.546 517.506,551.483 511.697,538.4C496.513,504.202 499.712,503.193 488.399,467.54C488.051,466.443 489.389,466.283 485.763,453.399C482.381,441.378 482.024,441.336 482.139,403.496C482.234,372.32 553.079,379.547 583.521,391.454C594.733,395.84 628.162,416.318 639.968,437.238C641.51,439.971 646.74,446.8 647.359,447.609C648.746,449.42 651.874,462.411 651.876,462.481C652.394,491.444 641.388,491.106 637.068,497.136C631.833,504.442 638.459,473.63 590.599,457.245C584.201,455.054 583.954,456.662 577.466,454.588C573.135,453.204 570.728,452.914 571.865,457.445C575.103,470.346 609.613,514.337 623.355,521.715Z" style="fill-opacity:0.99;"/>
            <path d="M800.999,488.5L800.999,498.5C795.919,529.267 796.515,557.413 793.966,563.673C792.934,566.206 795.039,566.674 784.989,596.666C784.054,599.455 778.32,616.568 766.427,628.412C763.917,630.913 743.364,624.92 737.154,617.822C733.804,613.993 731.132,616.71 691.827,573.22C679.128,559.169 682.11,554.744 683.083,553.3C689.479,543.808 692.538,536.972 693.208,535.475C694.824,533.585 694.616,533.701 695.564,531.505C695.751,529.518 696.194,529.95 697.979,529.647C706.055,546.008 757.492,527.746 746.614,503.397C745.855,501.697 740.223,498.613 739.614,498.28C734.151,495.288 708.512,507.548 707.976,503.438C704.786,478.974 693.309,473.901 706.471,469.428C728.915,461.799 738.524,456.025 777.546,459.196C778.559,459.278 777.719,461.7 789.536,463.407C792.714,463.866 799.517,485.289 800.999,488.5Z" style="fill-opacity:0.99;"/>
            <path d="M697.979,529.647C696.194,529.95 695.751,529.518 695.564,531.505C693.077,532.099 693.269,532.164 691.392,534.16C690.565,534.841 660.385,554.288 656.407,555.238C650.446,556.662 647.16,554.189 644.533,553.445C643.805,553.167 643.076,552.889 642.347,552.611C633.999,548.022 624.824,530.984 630.653,527.772C634.281,525.773 656.453,505.959 658.12,498.432C658.319,497.535 659.989,489.994 661.055,487.328C665.536,476.121 650.188,456.824 671.517,465.466C687.877,472.095 710.647,508.498 706.277,516.388C706.212,516.505 706.448,520.519 697.979,529.647Z" style="fill-opacity:0.99;"/>
            <path d="M416.525,864.01C395.947,861.663 410.416,831.178 412.223,815.437C412.909,809.455 438.852,823.763 442.657,827.312C444.867,829.373 468.68,843.628 468.788,844.411C469.399,848.815 442.023,869.383 416.525,864.01Z" style="fill-opacity:0.98;"/>
            <path d="M498.719,576.534C498.934,577.508 499.149,578.482 499.364,579.457C499.149,578.482 498.934,577.508 498.719,576.534Z" style="fill-opacity:0.43;"/>
            <path d="M623.751,880.942L624.514,880.569C624.665,881.105 624.815,881.641 624.966,882.176L623.751,880.942Z" style="fill-opacity:0.02;"/>
        </g>
        <g id="Background1" serif:id="Background" transform="matrix(1,0,0,1,636,1275)">
            <path d="M249.5,2.986C308.231,-1.142 332.366,13.706 338.511,17.486C378.317,41.973 395.22,76.234 398.349,82.578C400.349,86.631 413.495,113.277 418.003,135.551C425.195,171.08 430.201,178.663 424.999,209.542C423.524,218.293 416.362,210.306 413.449,209.991C405.546,209.135 406.121,207.207 405.456,207.317C396.557,208.787 376.473,190.976 228.498,199.37C208.397,200.51 158.897,182.931 155.604,181.291C154.258,180.62 143.653,175.337 138.579,173.315C54.735,139.902 -7.846,65.922 3.499,70.506C35.683,83.509 35.788,83.19 38.566,84.365C61.679,94.141 62.26,92.275 85.422,101.683C92.449,104.538 93.351,103.941 97.789,97.744C110.915,79.417 111.29,79.861 125.78,62.74C144.053,41.15 174.594,25.879 175.402,25.339C180.548,21.896 197.605,10.483 249.5,2.986L392.492,198.982C408.638,203.663 424.668,211.601 420.001,183.542C414.477,150.326 412.052,137.194 378.781,97.257C347.013,59.124 271.926,50.682 301.423,65.651C332.679,81.512 338.975,83.488 331.649,100.576C327.135,111.106 320.417,114.634 309.635,141.567C308.15,145.277 298.755,158.32 294.051,171.387C293.405,173.183 283.408,183.618 288.428,183.935C358.099,188.344 381.672,196.125 389.426,198.685C389.66,198.762 389.426,198.685 392.492,198.982L249.5,2.986Z" style="fill-opacity:1;"/>
            <path d="M858.5,285.987C870.078,287.811 899.429,286.336 884.428,291.325C835.779,307.506 828.202,305.819 756.504,306.032C748.557,306.056 731.672,301.564 729.553,301C728.809,300.802 698.106,289.058 632.574,270.316C628.376,269.115 628.326,269.649 579.575,257.315C560.185,252.409 509.608,233.884 508.08,224.553C507.524,221.162 525.353,174.825 566.744,143.79C645.671,84.611 757.473,113.515 802.347,203.578C832.161,263.416 811.627,278.129 825.442,279.922C837.772,281.523 836.974,284.271 849.444,285.921C852.437,286.317 855.507,285.591 858.5,285.987L759.975,228.5C762.483,213.739 758.812,200.779 749.651,179.423C744.749,167.997 699.539,146.265 671.493,147.036C657.051,147.433 685.455,157.337 690.269,160.789C703.348,170.166 687.964,172.352 686.342,176.42C683.513,183.518 677.612,193.505 677.319,194.426C664.337,235.222 646.161,259.472 647.805,262.372C648.361,263.352 684.436,269.632 694.557,271.081C709.762,273.259 740.975,288.145 754.295,259.398C758.457,250.415 759.802,231.007 759.975,228.5L858.5,285.987Z" style="fill-opacity:1;"/>
        </g>
    </g>
</svg>
