<?xml version="1.0" encoding="UTF-8" standalone="no"?>
<!DOCTYPE svg PUBLIC "-//W3C//DTD SVG 1.1//EN" "http://www.w3.org/Graphics/SVG/1.1/DTD/svg11.dtd">
<svg width="100%" height="100%" viewBox="0 0 1080 1080" version="1.1" xmlns="http://www.w3.org/2000/svg" xmlns:xlink="http://www.w3.org/1999/xlink" xml:space="preserve" xmlns:serif="http://www.serif.com/" style="fill-rule:evenodd;clip-rule:evenodd;stroke-linejoin:round;stroke-miterlimit:2;">
    <g transform="matrix(1.112722,0,0,1.112722,-39.959214,-58.088717)">
        <g id="Background" transform="matrix(1,0,0,1,108,40)">
            <g transform="matrix(1,0,0,1,0,12)">
                <path d="M165.235,510.449C99.203,414.001 72.727,352.7 25.288,227.578C18.978,210.935 -1.242,130.227 3.974,98.568C8.366,71.913 15.112,38.954 65.604,13.704C75.579,8.716 112.464,-1.341 141.577,10.318C151.728,14.383 185.201,19.285 209.316,79.577C218.695,103.029 229.771,191.631 230.999,201.458C240.37,276.428 235.969,276.868 248.701,351.463C249.875,358.343 262.152,430.274 267.822,444.452C228.863,460.517 194.064,483.045 165.235,510.449ZM552.515,445.848C554.97,436.884 580.168,326.974 581.97,276.505C582.16,271.189 597.275,107.627 612.32,74.424C638.683,16.245 660.242,15.344 684.427,5.321C691.737,2.291 764.986,-11.701 804.331,54.603C815.982,74.236 844.411,126.981 750.637,337.562C696.862,458.321 658.41,499.914 653.131,511.756C624.859,484.55 590.739,462.072 552.515,445.848Z" style="fill-opacity:1;"/>
            </g>
            <g transform="matrix(1,0,0,1.001776,-99,-35.802842)">
                <path d="M508,452C687.372,452 833,578.136 833,733.5C833,888.864 687.372,1015 508,1015C328.628,1015 183,888.864 183,733.5C183,578.136 328.628,452 508,452ZM429.915,803.379C420.555,774.685 414.912,729.853 340.574,708.859C326.3,704.828 312.203,702.087 287.44,705.629C259.35,709.648 228.977,726.325 219.319,759.879C212.513,783.524 210.794,797.244 224.319,836.891C239.853,882.431 329.796,896.325 386.561,882.159C399.885,878.833 431.519,863.872 432.731,863.051C444.397,855.153 436.088,822.304 429.915,803.379ZM515.5,969.047C538.685,969.018 593.879,951.694 568.681,919.595C558.815,907.027 545.507,912.37 528.506,920.395C512.783,927.817 502.171,941.242 472.5,939.1C453.54,937.731 450.039,936.397 451.085,940.667C454.112,953.02 489.361,969.08 515.5,969.047ZM656.426,849.978C669.347,851.521 708.123,857.057 709.458,857.279C758.848,865.496 767.205,799.497 742.332,762.052C720.243,728.798 676.898,724.952 651.423,735.813C591.497,761.363 556.593,822.768 561.16,835.042C568.141,853.805 585.412,841.496 656.426,849.978Z"/>
            </g>
        </g>
        <g transform="matrix(1,0,0,1,139,123)">
            <path d="M780.62,650.45C795.71,692.842 796.653,743.008 785.723,737.084C784.094,736.201 772.628,720.617 763.219,710.741C757.235,704.459 728.511,675.436 726.537,673.463C705.118,652.053 702.206,643.383 702.08,640.556C700.919,614.676 700.767,557.389 670.494,506.105C634.769,445.586 610.089,418.25 569.322,391.713C519.326,359.168 474.895,348.893 443.55,343.052C439.903,342.373 464.464,217.529 531.611,175.704C532.865,174.923 537.94,174.99 538.927,179.253C542.596,195.1 540.829,251.198 545.999,294.458C550.511,332.212 563.876,375.182 567.354,371.289C568.184,370.361 598.091,324.153 660.781,281.843C729.6,235.397 767.506,229.487 769.45,229.004C792.351,223.318 785.013,245.039 783.079,259.444C766.983,379.336 809.023,387.691 774.318,474.423C770.479,484.017 769.596,487.973 754.764,487.163C719.005,485.213 663.386,454.341 650.52,444.429C629.737,428.418 681.3,479.16 696.18,500.765C705.033,513.617 735.502,548.502 785.741,582.219C861.788,633.257 869.145,631.208 869.577,640.65C870.232,655 777.126,640.637 780.62,650.45Z" style="fill:rgb(160,71,222);fill-opacity:1;"/>
            <path d="M283.501,492.996C300.125,492.221 340.197,515.065 339.641,551.444C339.236,577.946 309.108,583.387 295.514,580.482C284.204,578.064 270.426,571.987 264.502,561.498C252.43,540.122 249.58,520.903 255.121,509.397C262.204,494.689 283.32,493.005 283.501,492.996ZM445.545,528.557C483.565,522.931 489.287,548.873 489.471,558.523C489.625,566.601 486.947,592.382 466.542,599.599C452.11,604.704 435.167,600.235 429.566,596.02C396.827,571.387 430.774,530.743 445.545,528.557Z" style="fill:rgb(160,71,222);fill-opacity:0.95;"/>
            <path d="M385.5,851.966C359.361,851.999 324.112,835.91 321.085,823.535C320.039,819.258 323.54,820.594 342.5,821.965C372.171,824.111 382.783,810.662 398.506,803.227C415.507,795.187 428.815,789.835 438.681,802.426C463.879,834.582 408.685,851.937 385.5,851.966Z" style="fill:rgb(160,71,222);fill-opacity:1;"/>
            <path d="M107.668,19.398C163.469,72.755 167.967,279.507 184.596,322.46C186.276,326.801 185.146,327.168 203.596,377.46C206.485,385.336 200.11,382.672 175.229,399.158C170.33,402.404 163.119,403.072 146.669,374.397C52.591,210.403 36.106,137.587 30.208,92.559C27.309,70.425 32.107,45.801 42.78,29.74C62.524,0.032 89.917,2.424 107.668,19.398ZM615.208,135.441C625.332,84.868 630.739,41.381 646.332,15.398C661.583,-10.014 687.103,-2.261 702.261,8.784C730.416,29.301 722.181,83.172 709.981,138.548C701.641,176.404 681.973,227.283 680.15,230.156C679.568,231.073 627.188,264.232 588.251,301.189C585.764,303.548 585.5,297.15 582.754,283.42C580.075,270.022 605.17,185.584 615.208,135.441Z" style="fill:rgb(160,71,222);fill-opacity:1;"/>
            <path d="M108.535,740.943C80.202,730.595 45.229,698.116 35.322,688.69C32.292,685.808 -1.474,645.972 9.552,643.211C11.87,642.631 53.578,659.073 59.218,652.529C61.871,649.452 65.875,617.407 101.823,588.772C145.798,553.743 215.344,569.493 248.241,594.836C315.107,646.347 307.922,703.381 327.367,742.555C329.007,745.86 321.594,745.088 304.506,745.037C299.055,745.02 312.178,745.252 306.587,710.437C303.575,691.684 284.906,647.006 242.456,612.564C219.384,593.844 160.019,575.331 123.218,611.179C101.496,632.339 83.843,657.987 87.966,694.455C89.758,710.303 99.942,732.864 106.831,737.034C111.572,739.904 108.855,741.06 108.535,740.943ZM607.402,745.943C585.799,743.74 584.365,741.904 591.105,740.034C598.866,737.881 620.178,728.303 621.97,712.455C626.094,675.987 624.44,656.339 602.719,635.179C565.918,599.331 514.553,617.844 491.48,636.564C449.03,671.006 436.825,691.978 432.35,710.437C428.759,725.252 439.032,722.945 435.431,727.037C428.343,735.088 413.799,742.164 414.57,737.555C419.66,707.123 421.83,670.347 487.695,611.836C518.742,584.257 584.139,572.743 628.113,607.772C664.061,636.407 648.066,684.452 650.718,687.529C656.359,694.073 698.067,677.631 700.385,678.211C711.411,680.972 678.082,721.352 674.615,723.69C654.708,737.116 628.087,748.053 607.402,745.943Z" style="fill:rgb(160,71,222);fill-opacity:0.99;"/>
        </g>
    </g>
</svg>
