<?xml version="1.0" encoding="UTF-8" standalone="no"?>
<!DOCTYPE svg PUBLIC "-//W3C//DTD SVG 1.1//EN" "http://www.w3.org/Graphics/SVG/1.1/DTD/svg11.dtd">
<svg width="100%" height="100%" viewBox="0 0 442 442" version="1.1" xmlns="http://www.w3.org/2000/svg" xmlns:xlink="http://www.w3.org/1999/xlink" xml:space="preserve" xmlns:serif="http://www.serif.com/" style="fill-rule:evenodd;clip-rule:evenodd;stroke-linejoin:round;stroke-miterlimit:2;">
    <g transform="matrix(1.456105,0,0,1.456105,2.02559,77.858817)">
        <g id="Background">
            <path d="M1.295,2.302C8.317,1.855 204.955,1.793 205.589,2.384C206.79,3.505 205.18,24.024 207.574,24.148C221.37,24.858 300.504,22.719 299.462,25.496C285.394,62.966 198.201,54.44 192.612,92.516C188.323,121.736 238.8,149.082 240.061,152.644C253.131,189.567 253.715,191.955 250.455,192.052C240.224,192.355 240.319,190.789 122.5,191.966C116.63,192.024 116.691,191.128 116.943,190.749C121.102,184.499 157.463,159.29 180.474,153.431C201.946,147.965 152.64,152.089 142.447,154.185C65.907,169.921 59.796,207.127 63.907,190.442C64.727,187.116 73.144,152.952 77.801,149.937C141.089,108.965 134.925,73.924 80.439,64.774C47.452,59.235 25.259,63.716 25.208,59.529C24.968,39.922 30.554,37.877 18.034,22.944C9.406,12.652 9.024,13.134 1.295,2.302Z" style="fill-opacity:1;"/>
        </g>
    </g>
</svg>
