<?xml version="1.0" encoding="UTF-8" standalone="no"?>
<!DOCTYPE svg PUBLIC "-//W3C//DTD SVG 1.1//EN" "http://www.w3.org/Graphics/SVG/1.1/DTD/svg11.dtd">
<svg width="100%" height="100%" viewBox="0 0 500 500" version="1.1" xmlns="http://www.w3.org/2000/svg" xmlns:xlink="http://www.w3.org/1999/xlink" xml:space="preserve" xmlns:serif="http://www.serif.com/" style="fill-rule:evenodd;clip-rule:evenodd;stroke-linejoin:round;stroke-miterlimit:2;">
    <g transform="matrix(1.172905,0,0,1.172905,-0.981607,104.513623)">
        <path d="M24.844,115.005C22.05,115.033 -5.031,117.851 3.767,111.812C14.874,104.189 12.154,101.947 20.306,91.338C28.002,81.322 8.339,71.14 10.828,67.751C19.631,55.765 30.357,56.29 41.639,53.738C45.025,52.973 41.185,51.927 40.432,48.533C37.861,36.946 32.297,22.121 40.224,28.838C46.286,33.974 55.329,34.697 56.162,32.409C59.854,22.276 61.763,23.582 67.817,14.77C74.591,4.91 75.237,43.774 84.059,29.25C89.043,21.045 94.117,20.474 104.635,15.779C113.166,11.971 103.504,22.186 109.89,32.223C110.924,33.847 111.155,31.038 133.588,28.062C138.876,27.36 130.674,35.679 130.179,36.181C112.831,53.778 118.178,57.236 116.353,58.24C99.653,67.425 85.306,82.617 101.279,75.046C104.68,73.434 143.427,55.069 143.769,54.838C144.983,54.02 151.764,49.443 159.446,45.411C186.338,31.295 184.998,29.355 202.77,17.832C218.823,7.423 221.414,0.662 234.544,2.177C238.034,2.579 247.243,8.388 248.233,10.644C259.311,35.904 230.654,48.623 227.54,49.599C225.11,50.36 211.925,54.491 196.546,56.829C180.728,59.233 198.189,61.002 198.553,60.957C219.917,58.277 222.217,61.45 229.591,59.755C236.025,58.275 270.758,59.032 290.454,55.177C323.347,48.739 324.562,56.545 397.46,38.393C409.587,35.373 427.665,46.594 425.818,61.544C423.294,81.986 407.562,87.565 400.388,91.278C362.012,111.142 291.693,110.239 289.457,109.818C272.445,106.622 262.728,73.729 255.396,75.258C247.214,76.964 260.657,94.026 261.7,95.349C276.558,114.209 276.17,114.279 290.161,133.764C296.797,143.006 283.813,164.927 279.55,165.688C278.404,165.893 260.214,127.492 250.335,117.662C243.127,110.49 245.703,121.727 250.709,127.333C252.307,129.123 303.415,201.96 260.518,208.648C259.093,208.871 255.126,199.237 254.767,198.366C249.606,185.833 226.938,139.453 225.9,153.535C225.743,155.666 225.368,160.745 235.983,178.26C266.22,228.157 232.869,249.7 232.128,245.63C231.15,240.254 210.582,251.992 189.273,237.89C168.403,224.078 215.861,230.763 210.976,212.374C209.053,205.135 166.966,233.022 128.465,215.584C94.872,200.368 87.867,186.535 81.064,173.72C67.724,148.588 65.191,115.052 64.866,136.506C64.659,150.155 67.966,161.381 68.581,163.469C73.843,181.335 78.46,183.59 72.533,185.587C62.71,188.897 63.529,190.061 56.255,197.198C52.935,200.456 47.335,177.785 45.486,164.534C45.171,164.548 44.856,164.562 44.541,164.576C43.371,165.467 43.657,165.556 42.361,166.236C36.03,169.557 33.695,175.401 31.754,168.405C26.003,147.683 30.811,146.5 29.208,145.607C25.743,143.675 19.707,152.734 18.952,151.207C11.044,135.225 23.729,118.714 25.451,116.473C25.434,115.484 25.847,115.37 24.844,115.005L160.577,141.021C138.852,135.747 123.079,120.022 118.237,123.156C100.618,134.559 186.097,176.762 186.095,157.463C186.094,146.607 161.848,141.372 160.577,141.021L24.844,115.005L148.517,96.019C135.946,93.857 134.598,94.973 133.683,95.73C126.821,101.411 148.511,105.888 166.553,111.099C169.392,111.918 197.093,119.918 203.347,114.308C218.123,101.052 176.537,101.571 148.517,96.019L24.844,115.005L185.498,72.001C182.023,72.395 125.33,72.397 150.407,80.746C152.503,81.444 203.56,88.572 209.517,83.518C222.692,72.341 202.878,69.705 201.532,69.991C193.41,71.719 193.489,70.644 185.498,72.001L24.844,115.005Z" style="fill-opacity:0.98;"/>
        <path d="M24.844,115.005C25.847,115.37 25.434,115.484 25.451,116.473C25.249,115.983 25.047,115.494 24.844,115.005Z" style="fill-opacity:0.05;"/>
    </g>
</svg>
