<?xml version="1.0" encoding="UTF-8" standalone="no"?>
<!DOCTYPE svg PUBLIC "-//W3C//DTD SVG 1.1//EN" "http://www.w3.org/Graphics/SVG/1.1/DTD/svg11.dtd">
<svg width="100%" height="100%" viewBox="0 0 8334 8334" version="1.1" xmlns="http://www.w3.org/2000/svg" xmlns:xlink="http://www.w3.org/1999/xlink" xml:space="preserve" xmlns:serif="http://www.serif.com/" style="fill-rule:evenodd;clip-rule:evenodd;stroke-linejoin:round;stroke-miterlimit:2;">
    <g transform="matrix(8.199579,0,0,8.199579,-60.0012,102.054742)">
        <path d="M326.498,406.539C332.638,406.949 346.906,407.904 398.514,379.525C422.63,366.264 390.554,380.279 390.438,380.326C336.504,402.526 335.81,404.822 330.811,401.151C321.726,394.481 312.533,346.55 310.889,334.437C296.313,227.007 324.811,185.305 333.676,167.581C340.535,153.868 340.25,147.311 366.521,151.281C393.141,155.305 470.877,230.684 472.183,242.305C468.736,243.795 468.951,243.811 465.392,245.241C459.027,247.798 463.097,249.536 463.47,249.619C464.019,249.741 467.696,250.558 470.497,249.49C505.308,236.208 535.745,249.725 540.521,250.311C553.367,251.888 552.829,255.402 553.627,254.639C557.997,250.463 533.101,242.403 534.053,240.328C536.517,234.962 538.285,236.538 541.976,231.917C559.433,210.059 560.899,211.561 574.034,200.001C577.511,196.94 614.244,164.61 620.506,165.471C626.376,166.278 631.928,158.047 633.431,157.366C660.138,145.267 662.898,159.198 671.941,180.264C701.878,250.011 692.705,277.601 687.437,318.49C681.626,363.591 662.218,385.729 656.593,387.831C650.479,390.116 576.236,365.361 572.361,363.955C554.628,357.524 598.432,386.866 654.58,393.095C670.057,394.812 685.86,359.529 690.555,338.512C710.232,250.426 695.746,215.726 675.168,169.662C650.929,115.404 571.636,191.775 552.703,204.811C521.613,226.216 517.798,237.965 517.862,228.499C517.917,220.289 517.871,220.417 517.871,202.5C517.871,108.793 549.388,62.179 539.257,9.54C537.563,0.738 548.586,3.042 551.389,5.623C563.386,16.667 569.568,15.392 588.79,34.127C610.645,55.429 623.209,79.734 623.735,80.267C643.898,100.74 642.849,101.603 644.676,103.295C655.262,113.095 654.303,113.681 663.429,124.566C664.047,125.304 670.769,133.322 671.149,133.805C681.323,146.766 681.141,146.736 691.407,159.571C711.928,185.226 714.602,201.322 716.58,202.368C717.369,202.784 717.826,202.311 719.025,191.486C720.581,177.439 717.289,170.678 724.681,163.739C727.094,161.474 730.762,170.316 731.395,171.554C780.426,267.431 725.954,315.887 730.578,320.439C754.29,343.787 784.84,335.967 873.154,456.721C919.847,520.565 905.72,528.365 934.856,575.285C943.459,589.141 988.873,638.788 991.836,641.037C1010.804,655.433 1010.806,655.317 1012.445,656.574C1013.354,657.27 1019.284,661.817 1008.352,670.288C982.309,690.469 945.373,685.678 942.657,687.717C938.225,691.045 949.688,690.418 955.077,725.558C965.769,795.279 936.65,794.953 893.064,856.212C857.989,905.509 916.51,928.986 895.441,932.26C858.897,937.938 839.544,926.241 835.392,923.731C829.138,919.951 834.765,940.2 835.147,941.575C845.072,977.295 853.764,981.373 857.159,982.966C860.649,984.603 849.892,987.981 847.481,988.02C802.377,988.749 795.997,985.844 783.758,978.075C779.844,975.591 757.544,955.623 754.98,952.112C749.422,944.501 751.572,940.131 748.517,941.544C731.178,949.564 690.354,941.778 662.787,963.851C653.835,971.018 659.297,947.711 659.422,947.458C667.143,931.813 668.131,932.608 679.422,919.439C693.771,902.702 720.461,896.851 711.464,896.713C708.951,896.674 668.085,911.654 664.339,913.027C537.702,959.448 477.397,956.604 373.459,934.983C325.752,925.059 326.025,924.869 278.568,914.165C273.544,913.032 251.705,915.55 250.544,916.556C243.708,922.478 248.479,927.334 213.196,953.016C192.295,968.229 175.303,959.213 179.414,957.375C187.886,953.587 191.49,942.69 194.966,935.769C206.188,913.428 200.471,901.904 198.516,902.548C172.852,910.998 173.163,915.003 145.461,911.98C122.532,909.477 123.076,907.56 100.701,902.019C95.077,900.626 107.759,897.521 108.463,897.349C133.382,891.247 137.155,857.599 124.262,846.769C39.019,775.168 15.025,677.078 16.118,673.436C19.891,660.865 14.869,660.437 19.082,631.471C31.152,548.471 69.548,500.727 81.875,483.815C99.34,459.857 163.043,393.575 169.706,387.713C224.521,339.493 224.341,339.422 267.088,308.094C268.659,306.943 255.471,283.689 260.208,248.435C266.181,203.973 294.979,162.191 299.559,155.546C307.597,143.884 305.56,139.155 315.587,133.701C321.019,130.746 323.439,156.332 328.344,147.402C344.373,118.218 401.759,70.959 407.433,62.454C411.441,56.445 435.811,19.907 477.505,5.514C498.109,-1.598 492.263,17.578 491.849,21.565C491.082,28.966 485.096,86.678 490.073,114.552C497.556,156.459 494.892,222.874 493.026,235.345C492.364,239.767 478.245,221.338 452.679,200.298C447.717,196.215 400.532,157.383 387.591,153.229C349.514,141.005 342.209,139.64 323.994,169.801C283.105,237.508 302.982,382.243 323.706,403.166C323.904,405.718 323.874,406.107 326.498,406.539ZM660.49,850.687C635.952,853.485 588.474,864.066 557.598,795.45C551.771,782.502 542.752,783.368 549.135,728.487C559.069,643.078 655.59,642.293 694.281,671.797C703.312,678.683 703.444,669.662 727.44,662.321C756.389,653.464 770.594,673.608 745.209,690.111C731.382,699.101 718.444,701.125 720.833,707.375C721.273,708.526 722.128,715.119 726.41,714.148C733.098,712.632 752.927,705.574 766.441,713.604C773.457,717.773 782.862,743.268 738.479,747.322C729.455,748.146 726.966,745.955 725.852,752.576C723.016,769.429 723.695,769.513 717.102,785.405C715.121,790.18 776.903,779.918 803.205,751.229C809.311,744.57 834.104,695.273 795.531,657.462C778.951,641.208 739.621,604.606 655.497,605.239C633.128,605.407 572.371,636.317 552.523,672.514C532.602,708.842 530.216,714.598 535.399,768.505C538.154,797.159 569.477,849.231 597.414,864.704C603.592,868.126 613.606,854.722 631.328,862.961C634.958,864.648 645.425,858.14 661.296,852.318C669.108,848.979 668.958,848.135 668.4,847.753C668.163,847.591 668.181,847.69 660.49,850.687ZM678.426,842.379C684.492,839.365 684.402,839.076 685.483,839.221C693.459,840.293 734.18,812.79 748.839,823.023C763.745,833.43 695.033,857.005 715.511,853.063C734.555,849.397 763.984,849.162 789.709,824.694C797.141,817.626 786.948,822.609 785.54,822.724C745.083,826.031 719.403,798.149 715.283,793.676C711.865,789.965 699.972,823.91 676.449,841.482L675.772,844.491C671.822,844.832 673.357,846.26 673.547,846.397C674.017,846.736 676.273,845.463 676.491,845.34C678.051,844.197 677.68,844.145 678.426,842.379ZM696.505,884.441C696.928,884.321 724.773,876.347 700.546,880.718C700.085,880.801 695.166,882.682 694.701,882.859C687.132,887.142 696.321,884.497 696.505,884.441ZM471.5,759.034C459.534,760.582 455.49,756.49 454.247,765.422C446.88,818.372 395.811,897.321 304.525,903.983C303.47,904.06 284.519,905.443 291.534,906.431C355.615,915.453 458.385,971.741 644.541,905.614C653.344,902.488 663.8,899.442 654.583,900.008C638.117,901.02 576.302,880.255 548.091,834.757C543.456,827.282 526.583,810.05 521.591,772.489C519.702,758.27 516.785,758.18 515.54,758.142C513.083,758.067 493.957,755.823 471.5,759.034ZM479.515,897.929C445.989,892.034 438.527,863.562 454.575,871.363C460.159,874.078 468.119,884.468 496.769,866.924C509.293,859.254 510.657,863.646 520.725,874.286C521.523,875.129 524.304,878.068 514.291,887.281C503.627,897.093 487.904,896.206 479.515,897.929ZM691.546,851.054C695.56,852.022 699.354,852.937 738.372,829.339C755.479,818.992 672.599,850.949 685.465,850.665C688.61,850.595 688.383,850.852 691.546,851.054ZM646.041,694.516C639.79,662.988 628.782,672.552 615.49,670.552C594.125,667.337 565.511,697.311 565.371,715.498C565.202,737.299 565.021,752.765 589.521,749.843C593.48,749.371 622.762,736.94 624.14,736.041C653.86,716.665 646.253,695.51 646.041,694.516ZM652.597,871.719C673.042,861.515 681.553,859.079 680.849,857.392C678.71,852.269 677.542,852.008 672.463,854.418C629.314,874.891 621.019,874.93 623.934,877.059C633.291,883.894 642.486,876.052 652.597,871.719ZM281.79,581.749C281.806,585.106 307.893,585.044 312.563,586.272C321.051,588.506 348.009,593.068 353.24,595.97C387.197,614.805 409.87,644.137 413.817,649.242C464.767,715.154 443.964,747.765 455.574,744.854C456.518,744.618 462.921,743.013 467.431,742.154C490.143,737.827 513.936,744.836 515.298,745.846C520.46,749.673 518.548,743.005 518.577,742.504C526.205,613.045 656.798,588.591 665.494,588.71C712.563,589.357 721.451,589.916 739.568,598.318C793.233,623.206 715.061,582.228 712.804,581.045C703.133,575.975 621.799,533.339 589.503,522.49C506.806,494.709 493.033,433.495 508.005,388.432C509.753,383.171 464.109,408.379 460.44,410.406C395.871,446.066 370.708,511.811 383.983,550.356C393.295,577.396 404.794,599.331 421.543,596.798C430.382,595.461 418.386,607.783 402.584,605.103C342.666,594.94 331.416,561.355 325.499,538.5C323.421,530.473 325.159,550.716 281.79,581.749ZM513.724,596.631C509.909,603.546 496.347,632.915 486.857,620.186C463.539,588.914 461.245,591.016 444.743,570.293C442.073,566.94 442.773,565.829 438.526,565.361C433.727,564.833 440.576,563.267 472.917,515.771C477.698,508.748 490.847,489.874 495.348,497.589C511.02,524.458 548.048,560.528 543.237,563.096C527.866,571.303 517.699,589.838 513.724,596.631ZM685.588,864.696C684.876,864.991 662.324,873.157 668.379,873.887C669.374,874.007 685.823,867.644 687.325,867.063C687.544,866.978 691.092,864.289 685.588,864.696ZM317.5,887.966C391.864,876.129 455.565,788.091 436.772,722.417C427.415,689.715 413.69,672.101 410.738,668.312C358.029,600.667 293.488,607.003 271.512,607.75C240.497,608.804 204.727,634.035 186.618,666.569C139.718,750.827 174.021,799.977 191.445,828.535C228.947,889.999 292.239,891.827 317.5,887.966ZM273.316,841.62C221.237,803.959 245.828,756.849 232.477,755.983C178.272,752.466 189.06,731.34 190.888,727.759C198.444,712.963 242.197,726.595 243.268,723.394C245.775,715.903 246.193,716.217 248.681,708.557C249.793,705.133 198.269,671.193 218.552,654.563C222.323,651.472 248.521,646.058 259.025,661.9C261.662,665.877 268.194,679.223 270.314,677.255C288.449,660.415 310.225,643.034 369.512,658.455C376.464,660.263 397.432,672.726 404.695,686.387C420.221,715.591 412.954,717.492 416.209,746.504C416.575,749.767 413.618,766.72 413.314,768.465C404.962,816.343 387.496,840.43 351.63,857.76C324.422,870.907 300.275,857.79 296.389,855.679C285.264,849.636 284.883,849.417 272.532,852.629C252.825,857.756 227.144,859.182 247.542,859.38C288.354,859.776 290.023,866.368 287.256,868.078C283.14,870.622 243.17,872.965 273.524,874.09C293.909,874.845 347.029,875.749 334.658,880.706C331.771,881.862 228.079,879.018 243.809,869.909C247.309,867.882 286.971,864.935 264.589,864.049C247.809,863.384 221.859,863.852 223.85,858.576C225.121,855.207 237.223,855.243 262.412,848.107C264.031,847.648 271.434,846.893 264.556,845.381C235.926,839.088 236.269,829.525 216.652,836.916C215.749,837.257 207.91,840.21 204.686,835.398C203.37,833.433 217.836,828.286 222.478,828.979C229.876,830.083 270.288,846.889 273.316,841.62ZM364.469,785.059C347.921,789.419 334.841,784.917 329.152,809.391C327.837,815.052 328.798,828.686 342.421,825.274C343.832,824.921 381.466,823.17 375.555,797.488C374.566,793.19 368.979,785.593 364.469,785.059ZM324.966,698.5C324.84,697.057 323.778,684.892 321.045,680.83C316.611,674.239 291.967,678.543 285.884,683.944C264.589,702.852 263.349,705.722 263.32,724.51C263.276,752.722 274.551,747.841 292.575,744.879C327.565,739.13 324.398,708.547 324.966,698.5ZM662.5,808.966C685.254,805.702 683.091,779.894 675.487,779.838C652.844,779.67 646.401,779.74 641.304,788.392C625.61,815.033 653.17,810.175 662.5,808.966ZM693.175,463.955C700.957,470.101 758.636,494.679 770.5,498.5C812.203,511.932 730.596,496.808 735.242,514.556C741.635,538.979 824.648,551.749 824.781,548.549C825.102,540.814 769.99,543.872 747.642,524.351C737.842,515.791 744.483,511.448 757.488,511.002C777.164,510.327 776.82,508.792 796.509,507.892C808.414,507.348 850.195,516.147 841.28,508.693C831.155,500.229 803.688,502.589 797.515,502.296C793.719,502.115 744.654,490.243 694.647,461.687C704.846,460.461 731.488,469.196 775.486,471.79C798.072,473.121 757.743,452.379 699.484,456.18C691.438,456.705 671.878,449.414 678.998,455.137C686.569,461.221 676.295,457.529 666.5,458.493C661.053,459.029 671.117,443.313 672.449,443.161C694.353,440.659 704.267,436.798 712.42,434.283C738.213,426.326 802.996,429.45 797.333,417.564C788.317,398.64 691.326,419.86 638.48,426.223C619.716,428.483 572.847,425.112 568.581,424.251C557.556,422.028 571.283,419.418 575.541,420.154C602.666,424.843 567.6,410.602 558.568,417.598C545.585,427.654 591.519,429.939 594.563,430.09C631.245,431.915 578.349,432.166 578.69,437.471C579.196,445.321 601.063,438.289 626.435,435.03C655.337,431.316 655.264,432.491 684.5,431.823C685.536,431.799 706.443,431.321 697.379,433.213C670.715,438.78 667.577,437.132 665.297,435.935C659.746,433.02 657.736,437.505 660.124,438.975C665.329,442.178 662.857,443.533 659.852,448.711C647.241,470.444 681.923,459.322 693.175,463.955ZM696.499,427.366C655.134,426.805 728.54,421.795 721.383,426.27C720.644,426.732 699.198,426.878 696.499,427.366ZM732.329,460.932L733.636,461.067C752.523,462.153 777.798,468.458 758.5,466.594C755.568,466.311 722.055,463.074 722.033,461.499C722.003,459.216 723.204,460.502 732.329,460.932ZM727.556,419.488C688.394,420.419 758.108,415.068 759.535,414.959C765.158,414.527 789.372,415.544 789.428,415.596C793.312,419.233 787.573,418.101 751.5,424.034C745.258,423.303 746.776,418.867 740.519,419.09C736.182,419.244 732.503,419.36 729.413,419.442C729.346,418.804 728.922,418.013 728.5,418.013C728.36,418.013 728.5,418.013 727.552,419.485C727.553,419.486 727.555,419.487 727.556,419.488ZM267.499,416.564C268.445,416.606 283.681,417.274 279.219,414.945C260.369,405.106 258.547,410.353 254.487,407.503C253.178,406.584 254.562,406.692 258.597,404.674C286.367,390.789 245.152,396.619 230.411,401.213C219.993,404.459 231.392,409.354 231.386,409.469C231.171,413.473 221.3,406.14 213.684,425.618C211.666,430.778 159.143,451.069 158.782,452.624C156.31,463.274 211.595,433.426 216.09,438.849C216.5,439.344 219.107,442.489 223.564,441.803C226.468,441.357 223.145,437.663 223.137,437.52C223.002,435.287 267.947,433.141 269.386,435.474C269.787,436.125 159.696,477.087 149.6,484.641C144.002,488.829 152.016,489.988 157.484,488.748C170.426,485.814 137.676,499.543 121.516,506.536C78.795,525.022 180.538,506.246 198.533,507.189C220.836,508.356 62.028,603.997 59.706,606.624C58.97,607.457 63.006,611.37 73.766,605.982C107.729,588.972 109.313,591.964 111.479,589.483C112.44,588.382 110.546,585.206 93.493,592.653L91.603,593.779C82.565,595.326 96.694,592.908 186.774,529.904C255.782,481.639 133.753,516.48 122.416,511.46C140.264,503.961 140.091,503.874 157.618,495.766C235.354,459.809 293.01,448.017 290.774,438.419C290.541,437.416 289.079,436.751 287.885,436.118C285.37,437.696 281.091,440.167 274.609,443.75C241.63,456.748 200.692,474.943 232.698,459.706C234.79,458.71 273.441,440.308 286.497,435.168C285.977,434.546 286.303,433.823 288.632,432.761C295.07,429.825 284.839,428.745 280.504,430.509C267.605,435.757 257.205,429.936 229.482,433.042C215.964,434.556 222.243,427.336 222.855,426.958C243.45,414.244 242.975,412.811 248.383,412.961C257.997,415.143 257.874,415.078 267.499,416.564ZM265.488,414.153C251.869,411.387 251.95,411.432 250.779,411.166C250.115,411.015 250.374,410.669 249.766,410.531C251.778,408.181 265.14,412.216 266.425,412.604L265.488,414.153ZM185.59,473.718C198.178,468.573 197.998,468.541 210.411,463.299C258.193,443.122 200.747,472.407 175.602,480.748C124.166,497.809 184.677,474.067 185.59,473.718ZM240.514,407.957C222.832,407.095 243.035,401.99 243.564,401.856C244.464,401.629 264.339,396.607 255.136,401.027C241.642,407.507 241.79,407.743 240.514,407.957ZM665.578,881.662C664.799,881.86 648.446,886.006 656.575,886.124C676.645,886.414 676.182,883.748 694.651,875.679C695.252,875.416 695.958,870.875 686.639,873.968C684.936,874.533 685.164,874.541 665.578,881.662ZM211.714,218.57C213.744,235.254 214.383,292.273 215.162,295.578C218.129,308.154 207.66,336.334 205.2,338.028C166.406,364.738 158.321,382.941 126.233,414.235C123.398,417 96.899,430.93 91.449,429.886C53.354,422.59 32.964,458.596 32.177,448.574C30.524,427.524 49.056,412.036 51.721,409.809C65.023,398.692 75.905,399.047 70.287,395.869C67.921,394.531 55.48,387.494 45.844,372.265C19.053,329.924 28.317,292.401 31.033,307.568C32.448,315.472 54.516,351.62 99.497,363.519C107.72,365.694 100.239,360.861 99.649,360.341C42.559,310.038 39.79,273.827 35.162,270.983C28.907,267.14 34.304,254.064 41.25,232.41C65.53,156.718 124.693,158.551 161.468,155.404C177.615,154.023 147.356,149.763 135.573,151.756C118.354,154.669 121.604,146.325 122.659,145.908C161.041,130.756 212.706,140.793 216.518,141.298C234.607,143.692 266.093,177.33 262.531,182.521C234.136,223.902 243.89,283.513 247.971,299.419C249.336,304.742 237.409,309.186 234.768,311.799C228.318,318.181 231.807,309.623 231.944,308.534C233.915,292.893 225.288,252.283 223.72,247.424C215.556,222.122 213.898,219.993 212.347,218.003L211.714,218.57ZM961.213,292.549C961.03,299.048 960.213,328.026 927.476,366.478C901.053,397.514 893.749,393.488 895.888,396.222C907.755,411.383 932.036,412.294 929.053,416.223C926.842,419.135 906.516,435.259 891.461,431.712C872.542,427.256 870.193,430.142 858.355,414.604C857.735,413.791 819.218,362.757 756.21,317.863C749.576,313.137 753.989,311.609 759.584,298.542C778.943,253.327 815.841,211.055 784.224,236.147C771.281,246.419 770.818,247.856 770.452,246.526C769.344,242.501 771.996,242.307 766.573,194.485C766.273,191.845 759.75,184.737 780.361,177.115C799.057,170.201 797.285,163.802 844.471,158.173C880.802,153.84 892.643,167.068 904.439,173.601C906.464,174.722 907.487,175.289 925.215,193.745C925.996,194.557 944.696,228.766 945.737,232.436C950.673,249.836 946.144,252.334 950.814,274.439C955.422,296.254 928.543,312.362 912.344,326.318C900.323,336.676 895.375,330.661 894.451,329.538C878.647,310.327 821.274,303.478 862.491,314.536C863.643,314.845 897.314,330.682 894.856,336.658C891.087,345.821 932.093,324.711 948.907,302.858C949.662,301.876 949.733,302.162 959.655,291.713C959.753,291.61 959.655,291.713 961.213,292.549Z"/>
    </g>
</svg>
