<?xml version="1.0" encoding="UTF-8" standalone="no"?>
<!DOCTYPE svg PUBLIC "-//W3C//DTD SVG 1.1//EN" "http://www.w3.org/Graphics/SVG/1.1/DTD/svg11.dtd">
<svg width="100%" height="100%" viewBox="0 0 442 442" version="1.1" xmlns="http://www.w3.org/2000/svg" xmlns:xlink="http://www.w3.org/1999/xlink" xml:space="preserve" xmlns:serif="http://www.serif.com/" style="fill-rule:evenodd;clip-rule:evenodd;stroke-linejoin:round;stroke-miterlimit:2;">
    <g transform="matrix(1.038326,0,0,1.038326,-36.532455,-7.429441)">
        <path d="M53.219,39.915L109.583,31.87L369.888,213.713L264.617,256.404L366.788,370.563L306.111,413.729L207.472,286.305L188.573,330.312L117,360.5L53.219,39.915Z" style="fill:rgb(255,197,249);"/>
        <path d="M76.365,42.002C76.793,42.351 77.072,42.861 77.5,43.21C77.697,43.37 78.064,43.288 78.204,43.5C78.254,43.576 79.205,48.14 79.289,48.544C80.531,54.502 80.347,54.516 81.692,60.459C82.818,65.435 82.406,65.513 83.757,70.428C84.37,72.66 84.618,76.468 85.637,80.463C86.602,84.245 87.509,89.962 88.535,94.492C89.662,99.465 89.42,99.494 90.629,104.465C91.492,108.019 91.367,109.659 93.484,118.504C94.611,123.208 94.142,123.299 95.336,127.542C95.705,128.85 96.571,133.825 96.827,135.435C96.907,135.939 98.698,143.906 98.775,144.456C99.701,151.065 100.199,150.958 101.336,157.527C102.459,164.015 102.83,163.921 103.847,170.44C104.023,171.57 104.504,171.465 106.779,184.432C106.934,185.314 107.006,185.284 108.868,195.437C109.499,198.879 109.788,198.811 110.762,204.453C112.581,214.991 114.123,220.349 115.618,229.485C116.204,233.067 116.515,232.982 117.091,236.565C117.903,241.619 119.871,250.91 120.671,255.468C121.113,257.985 121.178,257.948 121.718,260.447C122.899,265.917 122.427,265.99 123.776,271.429C125.157,276.996 124.829,278.738 126.567,285.483C127.385,288.66 127.117,290.229 128.496,295.501C129.24,298.343 129.571,301.972 130.382,305.53C131.152,308.91 133.592,322.183 136.254,334.554C136.894,337.529 136.689,337.546 137.393,340.525C137.466,340.836 137.631,341.131 137.642,341.45C137.644,341.525 137.23,342.404 137.884,343.5C138.032,343.747 138.281,343.923 138.428,344.17C135.175,345.407 124.847,349.238 123.503,349.518C120.914,350.058 120.952,349.105 120.421,346.514C119.931,344.115 119.797,341.795 118.515,336.497C117.475,332.2 118.009,332.102 116.392,325.526C115.354,321.307 115.842,320.674 114.354,314.538C113.107,309.391 113.237,307.735 111.594,300.48C110.357,295.013 110.865,294.923 109.457,289.511C108.24,284.835 108.756,284.738 107.325,278.544C106.783,276.198 96.561,223.081 92.248,201.555C91.247,196.557 91.372,196.549 90.222,191.567C89.565,188.719 89.721,187.325 87.736,178.448C86.862,174.537 86.588,171.543 85.803,168.419C85.286,166.363 78.911,133.04 78.754,132.438C77.226,126.559 77.754,126.457 76.322,120.543C75.12,115.58 75.495,115.523 74.365,110.531C72.795,103.593 73.136,102.614 71.318,95.547C71.033,94.437 71.283,94.389 68.602,81.479C68.322,80.127 66.781,72.707 65.301,64.536C64.653,60.964 64.485,61.017 63.813,57.443C61.935,47.448 61.601,47.419 61.939,46.607C62.701,44.78 63.287,45.328 74.459,42.351C74.609,42.311 74.6,42.325 76.365,42.002ZM220.078,264.776C220.648,265.135 221.394,265.142 221.964,265.5C222.083,265.575 221.953,265.683 223.192,266.77C224.008,267.486 223.994,267.5 231.569,277.449C233.362,279.805 233.351,279.786 254.223,306.715C255.408,308.244 268.87,325.613 269.025,325.832C269.719,326.813 272.723,331.058 278.197,337.735C278.594,338.219 278.571,338.23 283.012,343.902C287.602,349.765 291.887,355.386 292.652,356.39C297.69,363 301.861,368.34 302.669,369.374C305.728,373.289 306.402,375.823 311.333,374.085C312.862,373.546 312.801,373.397 330.381,367.183C342.054,363.058 342.075,363.103 342.196,363.107C342.4,363.114 342.383,363.133 344.718,363.465C345.776,368.492 347.348,374.346 348.151,380.545C348.406,382.511 347.974,383.151 343.54,384.626C342.425,384.996 330.754,389.423 329.644,389.845C327.257,390.75 327.345,390.932 324.633,391.869C319.322,393.705 319.429,393.961 311.632,396.838C307.543,398.347 302.345,401.283 300.291,399.857C298.458,398.585 297.263,396.121 294.26,392.707C293.402,391.732 290.932,388.498 290.427,386.52C290.149,385.431 290.573,385.4 289.416,372.507C288.631,363.754 289.472,362.031 286.508,361.853C285.697,361.804 274.005,363.902 272.683,363.208C271.989,362.844 271.932,362.684 271.287,353.516C271.142,351.447 270.754,340.38 269.657,338.386C268.612,336.486 260.179,338.542 257.542,338.835C254.722,339.148 253.868,339.302 253.567,336.491C252.312,324.794 252.235,315.158 251.028,313.986C249.884,312.874 247.005,313.631 242.537,313.875C236.427,314.209 235.03,315.07 234.811,312.449C233.511,296.838 234.086,290.579 232.77,289.242C231.561,288.013 229.793,288.804 223.491,289.406C220.356,289.706 220.385,288.641 220.291,285.507C219.77,267.97 219.854,267.98 220.033,266.539C220.182,265.334 220.064,265.339 220.078,264.776Z" style="fill:rgb(174,113,255);"/>
        <path d="M76.365,42.002C74.6,42.325 74.609,42.311 74.459,42.351C63.287,45.328 62.701,44.78 61.939,46.607C61.601,47.419 61.935,47.448 63.813,57.443C64.485,61.017 64.653,60.964 65.301,64.536C66.781,72.707 68.322,80.127 68.602,81.479C71.283,94.389 71.033,94.437 71.318,95.547C73.136,102.614 72.795,103.593 74.365,110.531C75.495,115.523 75.12,115.58 76.322,120.543C77.754,126.457 77.226,126.559 78.754,132.438C78.911,133.04 85.286,166.363 85.803,168.419C86.588,171.543 86.862,174.537 87.736,178.448C89.721,187.325 89.565,188.719 90.222,191.567C91.372,196.549 91.247,196.557 92.248,201.555C96.561,223.081 106.783,276.198 107.325,278.544C108.756,284.738 108.24,284.835 109.457,289.511C110.865,294.923 110.357,295.013 111.594,300.48C113.237,307.735 113.107,309.391 114.354,314.538C115.842,320.674 115.354,321.307 116.392,325.526C118.009,332.102 117.475,332.2 118.515,336.497C119.797,341.795 119.931,344.115 120.421,346.514C120.952,349.105 120.914,350.058 123.503,349.518C124.847,349.238 135.175,345.407 138.428,344.17C145.226,341.622 169.727,333.471 171.514,332.522C173.911,331.248 171.632,327.154 169.764,319.435C168.359,313.629 166.37,310.877 168.329,309.276C169.13,308.621 184.753,304.177 185.645,303.764C188.478,302.453 185.882,297.183 184.652,292.457C182.006,282.298 181.92,282.284 182.113,281.397C182.583,279.224 188.363,278.44 191.471,277.405C199.27,274.808 200.075,274.941 201.398,274.288C202.625,273.682 202.924,273.819 203.146,272.471C203.42,270.805 200.384,268.359 206.591,266.871C218.088,264.113 218.189,263.488 219.667,264.29C219.854,264.391 219.891,264.675 220.078,264.776C220.064,265.339 220.182,265.334 220.033,266.539C219.854,267.98 219.77,267.97 220.291,285.507C220.385,288.641 220.356,289.706 223.491,289.406C229.793,288.804 231.561,288.013 232.77,289.242C234.086,290.579 233.511,296.838 234.811,312.449C235.03,315.07 236.427,314.209 242.537,313.875C247.005,313.631 249.884,312.874 251.028,313.986C252.235,315.158 252.312,324.794 253.567,336.491C253.868,339.302 254.722,339.148 257.542,338.835C260.179,338.542 268.612,336.486 269.657,338.386C270.754,340.38 271.142,351.447 271.287,353.516C271.932,362.684 271.989,362.844 272.683,363.208C274.005,363.902 285.697,361.804 286.508,361.853C289.472,362.031 288.631,363.754 289.416,372.507C290.573,385.4 290.149,385.431 290.427,386.52C290.932,388.498 293.402,391.732 294.26,392.707C297.263,396.121 298.458,398.585 300.291,399.857C302.345,401.283 307.543,398.347 311.632,396.838C319.429,393.961 319.322,393.705 324.633,391.869C327.345,390.932 327.257,390.75 329.644,389.845C330.754,389.423 342.425,384.996 343.54,384.626C347.974,383.151 348.406,382.511 348.151,380.545C347.348,374.346 345.776,368.492 344.718,363.465C343.957,360.505 343.993,360.511 343.258,357.552C342.907,356.135 342.195,350.952 341.544,348.488C340.395,344.137 340.785,342.334 338.462,341.989C337.906,341.906 326.253,343.368 325.501,343.356C324.339,343.337 324.275,343.348 323.532,342.478C322.549,341.328 320.998,326.306 319.742,320.438C319.009,317.009 316.071,318.374 311.523,318.732C306.036,319.163 306.072,319.406 304.507,319.582C300.95,319.982 301.686,316.265 299.321,302.532C298.267,296.411 299.038,294.033 294.5,294.501C284.391,295.544 284.417,295.738 283.537,295.823C279.763,296.186 279.553,294.762 278.798,287.459C278.518,284.741 277.103,276.873 276.918,275.44C276.313,270.742 275.137,270.531 270.457,271.221C269.742,271.327 264.51,272.098 261.487,272.362C257.872,272.676 258.054,270.588 257.294,264.525C256.173,255.578 255.091,253.639 254.955,250.487C254.93,249.903 255.295,248.382 255.84,247.866C256.315,247.417 259.098,246.339 259.39,246.226C267.722,242.999 267.824,242.968 268.577,242.746C269.612,242.44 291.49,234.192 293.48,233.442C294.925,232.897 306.744,228.441 311.563,226.653C341.858,215.415 341.816,215.334 344.456,214.373C354.254,210.805 359.768,209.223 358.239,206.569C357.501,205.286 355.802,205.935 354.439,206.204C352.979,206.491 352.996,206.489 351.547,206.769C342.873,208.443 342.968,208.897 339.479,209.283C336.465,209.616 336.354,206.738 335.715,203.459C334.83,198.919 334.528,199.004 333.649,194.47C333.634,194.392 332.19,187.709 332.228,187.489C332.721,184.598 344.989,182.917 346.509,182.537C346.906,182.438 350.791,181.466 351.484,181.365C354.349,180.948 354.203,184.356 355.151,188.578C355.402,189.697 358.111,201.766 358.343,202.55C358.89,204.396 360.296,204.953 360.544,205.051C360.978,205.223 363.315,204.839 363.554,204.8C370.215,203.705 376.75,201.025 378.272,202.694C378.752,203.22 379.949,207.389 380.226,208.565C381.175,212.593 381.307,212.545 382.34,216.544C384.66,225.527 384.777,225.531 384.567,226.515C384.326,227.645 373.951,249.606 373.58,250.534C371.941,254.641 371.212,254.619 361.429,258.328C360.054,258.849 348.375,263.383 347.558,263.672C342.404,265.493 337.024,267.837 335.444,268.336C334.441,268.653 305.289,279.939 304.411,280.247C301.669,281.208 299.9,281.122 301.136,286.592C301.226,286.991 302.197,291.294 302.281,291.569C302.618,292.691 303.452,292.963 303.601,293.012C304.636,293.35 317.176,290.742 319.232,291.917C321.168,293.025 321.109,299.909 322.261,305.553C323.92,313.684 323.732,313.714 323.888,314.418C324.698,318.063 327.12,316.486 332.547,315.922C339.363,315.213 339.43,314.97 340.5,315.5C342.232,316.36 342.505,323.534 343.325,327.535C344.35,332.534 344.333,332.513 345.159,337.562C345.703,340.887 348.016,340.13 349.568,339.931C357.83,338.868 357.799,338.708 358.518,338.619C361.837,338.206 361.684,340.293 362.573,343.478C363.241,345.872 366.179,358.076 366.276,358.544C367.212,363.039 367.474,362.964 368.265,366.554C369.993,374.4 370.527,374.823 369.203,377.364C367.899,379.868 365.716,385.431 362.651,392.573C358.829,401.479 358.79,402.441 356.502,403.504C354.492,404.437 290.522,428.471 290.494,428.481C287.747,429.413 286.075,426.815 284.203,424.782C280.13,420.359 276.026,418.638 273.527,414.482C267.845,405.031 270.875,400.607 269.266,398.685C268.377,397.623 267.041,398.894 264.829,396.232C257.578,387.505 254.857,383.953 254.021,382.862C250.717,378.549 252.798,376.135 251.532,372.487C250.728,370.175 249.222,372.263 246.457,370.558C245.898,370.213 244.24,368.079 244.063,367.85C239.852,362.431 234.982,358.688 233.614,353.47C232.312,348.504 234.361,346.18 230.49,346.344C227.337,346.479 227.451,344.875 223.074,339.844C219.549,335.793 214.778,332.106 214.234,324.521C214.072,322.271 214.743,321.134 212.482,321.314C212.147,321.341 211.843,321.536 211.51,321.583C210.988,321.657 208.384,322.027 205.892,318.131C205.101,316.894 205.286,316.591 204.496,316.522C203.289,316.416 203.623,317.015 203.027,318.168C200.975,322.139 194.781,321.692 193.889,323.724C192.949,325.864 198.853,341.023 198.922,346.481C198.984,351.304 191.142,364.824 189.448,368.473C187.644,372.362 187.868,373.031 181.437,375.337C179.001,376.211 179.095,376.398 177.345,377.098C171.909,379.27 171.916,379.223 166.505,381.512C158.159,385.044 158.096,384.884 157.373,385.196C151.269,387.827 151.219,387.695 150.692,387.932C145.83,390.122 145.759,389.946 145.342,390.148C142.671,391.443 137.308,393.505 136.601,393.777C127.702,397.199 124.972,399.168 122.465,398.664C121.612,398.493 112.818,393.861 110.564,392.405C102.292,387.063 104.344,379.706 102.81,372.426C100.503,361.479 100.617,361.47 100.405,360.522C100.138,359.332 91.886,317.089 91.795,316.453C91.161,312.027 90.034,308.269 89.893,307.432C89.042,302.379 89.108,302.378 87.866,296.423C86.917,291.871 87.064,291.859 86.199,287.563C81.921,266.308 82.104,266.296 81.712,264.454C79.913,256.008 80.093,255.991 78.263,247.553C77.778,245.317 77.374,241.132 76.433,237.518C75.326,233.269 75.724,233.197 74.329,226.538C72.569,218.142 72.38,216.458 72.203,215.558C67.274,190.589 67.372,190.573 66.915,188.408C65.227,180.403 65.725,180.311 64.42,175.521C63.494,172.12 63.796,171.071 62.346,164.535C60.769,157.434 60.806,156.389 60.629,155.474C59.185,148.043 59.058,148.071 58.943,147.423C56.974,136.386 56.858,136.424 56.694,135.465C55.997,131.403 51.983,111.325 51.687,109.466C50.702,103.287 49.677,100.142 48.835,94.441C48.593,92.802 46.996,85.745 46.941,85.428C45.187,75.273 44.969,75.325 44.83,74.441C44.308,71.125 40.659,53.374 40.283,51.545C39.431,47.399 40.299,46.243 44.23,40.332C47.703,35.109 51.285,29.267 53.66,25.6C55.914,22.12 56.565,22.844 60.578,21.813C62.495,21.32 62.456,21.235 84.511,15.547C92.728,13.428 92.709,13.38 93.423,13.199C101.815,11.073 101.869,11.073 102.579,11.308C103.903,11.746 103.49,12.227 106.614,21.462C108.142,25.976 108.006,25.995 109.292,30.565C109.809,32.405 110.38,32.945 108.624,33.706C107.572,34.162 107.609,34.219 106.505,34.525C101.991,35.773 100.032,36.202 99.464,36.327C93.061,37.732 79.253,41.469 76.365,42.002ZM252.499,126.501C252.408,126.972 251.434,126.89 251.344,127.362C251.253,127.834 251.668,128.374 252.097,128.592C252.854,128.975 253.352,128.493 253.43,128.419C253.902,127.963 253.019,127.701 253.498,127.238C253.807,127.189 254.127,127.288 254.435,127.239C255.513,127.065 255.471,126.943 256.546,126.713C266.325,124.62 271.686,121.945 273.343,123.655C274.331,124.675 276.797,135.208 277.604,137.463C278.441,139.8 279.098,143.099 279.248,143.583C279.321,143.819 279.856,145.541 281.489,145.704C282.865,145.841 296.721,141.631 298.496,141.69C302.059,141.808 301.812,148.116 303.633,153.454C304.359,155.583 304.87,158.291 306.138,162.6C306.212,162.85 306.75,164.682 308.507,164.828C309.622,164.921 319.375,162.146 324.414,161.126C327.76,160.449 327.779,161.881 328.812,166.437C329.438,169.195 329.652,169.127 330.234,171.573C332.66,181.753 333.05,181.663 333.066,182.572C333.114,185.356 326.657,186.055 314.55,188.713C311.016,189.489 311.217,188.047 310.271,184.561C309.755,182.66 309.454,180.051 308.613,177.462C307.298,173.413 307.386,172.835 306.704,168.466C306.459,166.894 306.229,166.688 305.628,166.352C305.26,166.147 304.946,165.789 304.529,165.724C304.312,165.69 288.452,169.44 287.514,169.601C284.113,170.185 283.948,166.409 283.753,165.45C282.699,160.252 282.376,160.354 281.455,156.511C280.213,151.328 279.792,148.6 278.465,147.551C277.961,147.154 277.33,146.655 270.495,148.48C259.753,151.347 259.248,151.107 258.357,150.684C257.833,150.436 258,150.27 254.55,138.486C252.16,130.321 252.862,130.119 252.434,129.519C252.293,129.32 251.965,129.357 251.774,129.205C251.629,129.091 251.625,128.836 251.463,128.748C250.662,128.313 248.066,128.98 246.467,129.366C245.43,129.617 234.696,132.211 233.488,132.428C229.79,133.094 230.084,129.123 228.434,123.52C226.107,115.619 226.363,115.553 225.689,113.433C223.95,107.968 221.639,110.207 213.409,112.113C209.983,112.906 210.04,113.051 206.603,113.883C206.363,113.941 204.498,114.392 203.537,113.464C202.385,112.35 200.4,102.939 199.566,100.476C197.459,94.258 197.969,92.906 196.917,92.234C195.533,91.349 195.603,91.274 195.467,91.237C194.883,91.081 191.021,92.546 187.447,93.231C179.5,94.753 175.896,97.832 174.743,93.429C173.695,89.424 173.386,89.532 172.378,85.531C170.097,76.471 168.839,75.943 169.593,73.553C170.048,72.108 172.502,71.936 173.538,71.644C184.483,68.563 184.492,68.612 185.429,68.297C185.731,68.196 188.177,67.374 189.379,67.796C190.764,68.282 190.314,68.784 194.221,80.591C196.887,88.649 196.311,88.862 196.788,89.422C196.926,89.585 197.217,89.491 197.404,89.593C197.789,89.803 198.066,90.213 198.484,90.349C199.204,90.581 205.46,88.827 205.572,88.803C211.91,87.427 216.656,84.246 218.804,87.313C219.344,88.084 219.134,88.176 222.18,98.586C224.672,107.103 224.72,107.154 225.252,107.71C227.37,109.925 227.857,107.863 242.569,104.793C244.816,104.324 245.97,103.662 247.108,107.613C249.771,116.849 249.854,116.813 250.075,117.619C251.299,122.074 251.157,122.089 252.499,126.501ZM136.125,47.625C137.057,50.966 137.179,50.951 137.106,51.524C136.946,52.776 135.63,53.286 135.446,53.357C132.773,54.391 128.16,55.432 127.518,55.577C121.335,56.972 117.235,59.32 115.697,57.354C115.073,56.556 112.822,48.625 111.687,45.433C111.492,44.885 111.588,44.858 109.519,38.493C108.755,36.141 109.343,35.949 111.555,34.82C111.8,34.696 125.49,31.003 126.557,30.679C131.212,29.264 130.711,32.754 133.281,39.583C134.789,43.59 134.492,43.677 136.125,47.625ZM147.586,51.761C149.557,51.13 149.54,51.148 151.539,50.655C157.602,49.161 159.288,47.251 160.693,51.435C165.974,67.166 165.876,67.196 166.343,68.561C166.972,70.395 167.402,70.909 165.636,71.734C161.805,73.522 154.406,75.103 153.467,75.402C152.99,75.554 148.866,76.869 147.436,77.045C147.282,77.065 146.264,77.19 145.589,76.423C145.088,75.852 144.466,73.773 144.394,73.533C144.177,72.807 141.888,65.16 141.702,64.447C139.883,57.479 138.642,56.525 139.43,54.431C139.759,53.556 140.134,54.043 147.586,51.761Z" style="fill:rgb(26,0,93);"/>
    </g>
</svg>
