<?xml version="1.0" encoding="UTF-8" standalone="no"?>
<!DOCTYPE svg PUBLIC "-//W3C//DTD SVG 1.1//EN" "http://www.w3.org/Graphics/SVG/1.1/DTD/svg11.dtd">
<svg width="100%" height="100%" viewBox="0 0 442 442" version="1.1" xmlns="http://www.w3.org/2000/svg" xmlns:xlink="http://www.w3.org/1999/xlink" xml:space="preserve" xmlns:serif="http://www.serif.com/" style="fill-rule:evenodd;clip-rule:evenodd;stroke-linejoin:round;stroke-miterlimit:2;">
    <g transform="matrix(0.812913,0,0,0.812913,40.48298,11.417124)">
        <path d="M393.155,307.155C383.957,316.352 278.385,421.924 278.165,422.103C275.536,424.236 206.291,421.503 203.587,423.617C203.181,423.934 163.996,463.119 160.558,466.558C156.877,470.238 115.897,511.218 114.602,512.615C111.424,516.043 112.101,511.293 112.101,496.5C112.101,424.165 112.168,424.014 111.595,423.409C110.165,421.901 3.971,423.797 2.621,422.384C2.197,421.94 2.179,421.792 2.189,100.5C2.189,94.546 1.57,94.044 5.807,89.807C12.765,82.849 92.575,3.038 92.804,2.854C93.946,1.934 94.136,2.034 245.5,2.034C436.29,2.034 436.22,2.042 438.499,1.965C443.056,1.811 441.811,3.932 441.811,8.5C441.83,257.901 441.727,257.967 441.443,258.47C440.914,259.409 440.805,259.332 421.568,278.568C407.293,292.844 407.43,292.88 393.155,307.155ZM166.5,312.889C192.897,312.889 192.869,312.833 193.689,313.184C194.741,313.635 194.594,314.075 194.594,350.5C194.594,374.427 193.491,375.808 195.507,375.708C196.256,375.671 256.915,313.992 258.407,313.325C260.443,312.415 309.02,313.077 329.506,312.885C332.53,312.857 334.099,310.492 339.296,305.296C403.812,240.779 403.817,240.789 404.196,240.281C404.965,239.253 404.882,239.106 404.882,56.5C404.882,40.27 405.503,38.739 402.495,38.636C402.426,38.634 114.952,38.628 114.508,38.64C111.216,38.724 112.235,44.763 112.235,45.5C112.226,311.633 112.23,311.786 112.704,312.315C113.291,312.971 113.484,312.889 166.5,312.889ZM350.034,122.5C350.034,211.134 350.141,211.52 349.205,212.003C348.619,212.305 315.078,212.543 314.237,211.875C313.294,211.126 313.401,210.839 313.401,130.5C313.401,103.824 313.172,103.216 314.586,102.745C315.066,102.584 348.312,102.326 349.241,102.883C350.582,103.686 349.68,112.235 350.034,122.5ZM212.882,160.5L212.882,121.5C212.882,103.886 212.469,102.935 214.518,102.626C214.947,102.562 247.175,102.598 247.489,102.611C249.99,102.711 249.406,106.334 249.406,107.5C249.41,210.927 249.466,211.124 248.742,211.788C247.791,212.661 214.183,212.229 213.744,212.022C212.757,211.557 212.882,211.143 212.882,160.5Z" style="fill-opacity:1;"/>
    </g>
</svg>
