<?xml version="1.0" encoding="UTF-8" standalone="no"?>
<!DOCTYPE svg PUBLIC "-//W3C//DTD SVG 1.1//EN" "http://www.w3.org/Graphics/SVG/1.1/DTD/svg11.dtd">
<svg width="100%" height="100%" viewBox="0 0 442 442" version="1.1" xmlns="http://www.w3.org/2000/svg" xmlns:xlink="http://www.w3.org/1999/xlink" xml:space="preserve" xmlns:serif="http://www.serif.com/" style="fill-rule:evenodd;clip-rule:evenodd;stroke-linejoin:round;stroke-miterlimit:2;">
    <g transform="matrix(1,0,0,1,3.5,67.5)">
        <path d="M123.609,3.882C126.239,3.973 126.051,3.777 128.499,3.404C217.53,2.844 217.351,2.486 306.501,3.409L311.557,4.094C410.807,6.57 408.32,24.16 414.709,30.298C440.49,55.064 437.96,247.182 417.632,272.582C399.976,294.643 398.138,300.135 270.392,304.119C264.912,304.051 265.052,304.175 259.5,304.606C212.024,304.448 205.334,304.521 175.5,304.606L164.449,303.889C161.091,303.838 139.316,303.511 122.499,302.51C62.145,298.92 14.062,304.167 6.447,237.507C-2.49,159.281 4.756,89.266 6.083,76.45C12.343,15.959 29.584,7.682 123.609,3.882ZM251.634,133.28C175.721,89.52 175.419,89.12 174.691,89.71C173.197,90.92 174.156,205.47 174.24,215.535C174.262,218.106 175.487,217.309 177.777,215.979C276.381,158.687 276.926,159.755 285.083,154.13C286.595,153.086 283.103,151.452 251.634,133.28Z" style="fill-opacity:1;"/>
    </g>
</svg>
