<?xml version="1.0" encoding="UTF-8" standalone="no"?>
<!DOCTYPE svg PUBLIC "-//W3C//DTD SVG 1.1//EN" "http://www.w3.org/Graphics/SVG/1.1/DTD/svg11.dtd">
<svg width="100%" height="100%" viewBox="0 0 442 442" version="1.1" xmlns="http://www.w3.org/2000/svg" xmlns:xlink="http://www.w3.org/1999/xlink" xml:space="preserve" xmlns:serif="http://www.serif.com/" style="fill-rule:evenodd;clip-rule:evenodd;stroke-linejoin:round;stroke-miterlimit:2;">
    <g id="Background" transform="matrix(0.709526,0,0,0.709526,-140.625844,-164.88404)">
        <path d="M209.034,447.5C209.607,400.115 217.052,364.496 262.606,342.724C318.794,315.87 651.355,322.682 710.485,334.573C830.946,358.796 813.512,473.284 802.479,501.491C768.228,589.06 673.322,576.575 668.504,576.605C663.445,576.638 660.812,606.813 652.483,627.494C598.919,760.483 500.17,763.638 436.5,763.609C224.854,763.511 209.681,597.611 209.034,447.5ZM703.398,512.005C705.074,511.479 733.487,507.031 743.029,478.347C744.365,474.332 752.252,450.623 741.564,425.472C727.154,391.559 687.329,392.978 682.503,393.532C662.96,395.778 666.151,404.152 666.152,482.5C666.152,504.687 665.195,518.18 703.398,512.005ZM285.099,492.5C287.262,527.849 293.061,588.934 417.784,663.042C443.54,678.346 454.613,678.397 516.589,633.616C692.162,506.754 565.905,350.133 469.813,411.96C456.602,420.46 444.83,437.843 443.572,436.388C441.328,433.791 415.978,390.453 358.454,400.243C349.989,401.684 327.388,407.67 309.94,426.91C283.823,455.709 285.199,491.201 285.099,492.5Z"/>
    </g>
</svg>
