<?xml version="1.0" encoding="UTF-8" standalone="no"?>
<!DOCTYPE svg PUBLIC "-//W3C//DTD SVG 1.1//EN" "http://www.w3.org/Graphics/SVG/1.1/DTD/svg11.dtd">
<svg width="100%" height="100%" viewBox="0 0 442 442" version="1.1" xmlns="http://www.w3.org/2000/svg" xmlns:xlink="http://www.w3.org/1999/xlink" xml:space="preserve" xmlns:serif="http://www.serif.com/" style="fill-rule:evenodd;clip-rule:evenodd;stroke-linejoin:round;stroke-miterlimit:2;">
    <g transform="matrix(1.001953,0,0,1.001953,-540.363431,-57.338887)">
        <path d="M780.461,490.079C765.398,491.074 726.622,494.213 681.386,475.778C619.333,450.49 576.146,394.117 568.919,318.457C564.587,273.103 572.653,222.011 591.048,184.286C598.92,168.143 615.719,134.821 655.147,106.008C657.241,104.477 668.695,96.107 682.736,88.973C745.734,56.969 816.221,62.211 853.36,72.989C884.276,81.961 901.712,94.739 910.148,100.952C910.291,101.058 919.487,108.11 928.394,117.598C933.051,122.559 938.813,130.24 939.667,131.379C944.332,137.598 951.988,150.842 951.986,152.491C951.983,154.367 949.241,155.496 944.702,158.79C943.007,160.02 920.929,175.429 920.612,175.661C917.152,178.195 915.636,179.248 914.598,178.385C913.603,177.558 902.686,156.31 884.899,141.049C879.446,136.37 844.858,101.992 765.523,111.663C695.826,120.159 625.919,171.931 616.614,274.511C607.222,378.046 664.525,445.831 759.5,445.66C793.789,445.599 824.89,433.823 839.337,425.211C844.251,422.282 888.508,399.175 887.094,350.511C886.52,330.753 877.783,317.861 868.319,311.778C865.863,310.199 863.546,308.293 862.513,311.505C857.835,326.057 835.131,397.478 752.48,392.808C709.077,390.355 681.75,367.811 676.413,335.514C671.356,304.909 682.421,268.45 729.586,252.755C748.111,246.591 767.537,245.155 783.5,245.139C800.47,245.123 816.613,247.325 819.471,247.715C821.784,248.031 822.589,247.848 822.267,245.528C821.697,241.42 818.879,229.326 813.329,221.619C809.565,216.392 800.166,204.143 774.486,205.232C753.011,206.142 742.314,218.132 738.442,222.448C733.583,227.863 732.179,231.731 730.508,231.773C729.268,231.805 727.907,230.239 718.767,224.111C717.292,223.123 717.417,222.949 700.57,211.4C695.654,208.03 695.613,208.055 695.363,207.605C694.72,206.45 694.779,205.76 697.287,202.35C702.747,194.927 711.661,183.681 730.319,174.143C763.86,156.998 813.033,157.651 841.565,183.427C856.915,197.295 862.788,212.794 866.382,224.533C870.66,238.502 871.245,254.839 871.34,257.505C871.398,259.138 870.963,261.383 873.445,262.605C886.715,269.142 936.106,292.736 934.797,356.506C933.354,426.849 872.353,477.54 790.563,488.92C789.757,489.032 786.793,489.445 780.461,490.079ZM768.459,347.206C772.286,346.537 805.198,343.256 819.025,299.354C821.389,291.85 820.74,291.342 820.204,290.923C817.856,289.084 752.876,280.51 730.563,303.561C720.315,314.147 718.591,334.716 738.391,343.736C751.511,349.713 765.29,347.584 768.459,347.206Z"/>
    </g>
</svg>
