<?xml version="1.0" encoding="UTF-8" standalone="no"?>
<!DOCTYPE svg PUBLIC "-//W3C//DTD SVG 1.1//EN" "http://www.w3.org/Graphics/SVG/1.1/DTD/svg11.dtd">
<svg width="100%" height="100%" viewBox="0 0 442 442" version="1.1" xmlns="http://www.w3.org/2000/svg" xmlns:xlink="http://www.w3.org/1999/xlink" xml:space="preserve" xmlns:serif="http://www.serif.com/" style="fill-rule:evenodd;clip-rule:evenodd;stroke-linejoin:round;stroke-miterlimit:2;">
    <g transform="matrix(2.613421,0,0,2.613421,-3.225767,43.756291)">
        <path d="M144.002,101.04C143.03,102.071 143.004,102.019 142.06,103.098C136.334,109.64 120.325,125.425 103.5,130.5C87.172,135.424 70.701,133.837 48.548,117.438C48.123,117.123 42.402,113.032 33.046,103.965C31.827,102.784 26.371,97.496 18.648,88.378C11.166,79.544 6.848,73.457 6.352,72.588C1.918,64.824 1.627,58.399 2.96,51.601C3.145,50.657 5.457,41.77 12.455,36.445C18.418,31.908 25.324,28.572 36.431,30.788C47.627,33.022 53.538,42.694 55.188,44.744C56.439,46.298 58.02,48.387 58.262,48.707C58.364,48.842 59.514,50.361 59.568,50.376C60.017,50.499 61.035,49.702 61.093,49.407C61.241,48.662 60.763,48.603 61.85,43.576C63.858,34.289 68.362,26.437 73.039,21.098C73.472,20.604 82.786,8.515 100.416,4.171C116.483,0.212 129.282,5.315 131.605,6.241C143.151,10.845 149.436,16.839 157.715,27.338C158.966,28.924 161.272,32.59 161.766,33.336C163.749,36.33 169.818,47.986 169.303,58.49C168.828,68.215 166.064,71.357 160.613,79.577C155.011,88.024 146.65,97.856 145.354,99.38C144.659,100.197 144.686,100.201 144.002,101.04ZM124.99,86.964C133.661,77.914 141.694,65.904 141.825,65.712C146.41,58.997 148.763,56.717 146.748,48.432C145.819,44.608 142.694,38.079 138.752,33.297C135.451,29.294 125.764,15.657 106.529,16.896C80.404,18.578 64.575,49.047 81.988,72.113C82.303,72.53 92.05,83.474 92.806,84.17C93.821,85.104 96.142,86.332 93.754,87.844C86.367,92.525 80.983,91.66 74.349,87.787C67.742,83.93 59.177,77.87 44.297,60.67C39.505,55.131 33.962,47.719 33.642,47.372C28.048,41.295 18.333,44.554 16.679,51.544C15.827,55.144 16.511,57.866 19.385,61.586C25.83,69.931 30.692,76.158 39.265,84.735C45.051,90.523 59.744,105.908 76.585,110.177C78.307,110.614 87.774,113.013 98.657,107.856C111.9,101.581 121.246,91.194 124.99,86.964ZM119.013,40.98C122.445,44.942 126.712,49.312 124.337,55.431C124.151,55.909 124.579,56.222 114.124,69.205C111.578,72.367 110.918,72.172 110.568,72.068C109.666,71.8 109.069,71.071 100.496,62.504C99.938,61.947 92.982,56.679 95.162,47.418C96.934,39.893 106.231,33.766 115.538,38.43C116.673,38.999 118.111,40.267 119.013,40.98Z" style="fill-opacity:1;"/>
    </g>
</svg>
